<svg xmlns="http://www.w3.org/2000/svg" width="19.205" height="17.69" viewBox="0 0 19.205 17.69">
  <path id="Path_154" data-name="Path 154" d="M1390.271,108.963c-.529-.7-1.065-1.418-1.594-2.125h0q-2.931-3.906-5.859-7.813L1387,94.567l2.709-2.887.2-.209h-2.1l-.037.039-3.14,3.347-2.746,2.927q-2.349-3.131-4.7-6.264l-.037-.05h-5.665l.145.2q3.514,4.777,7.033,9.552l-4.2,4.477-3.249,3.463h2.09l2.84-3.026,3.439-3.664q1.226,1.663,2.45,3.327t2.44,3.313l.037.05h5.911Zm-9.8-7.8h0l-.683-.926-5.359-7.279h1.979l3.969,5.292.476.635.062.083.779,1.039.088.118h0l4.353,5.8,1.308,1.744h-2.183l-4.642-6.307h0l-.068-.091Z" transform="translate(-1371.215 -91.471)" fill="#fff"/>
</svg>
