<svg xmlns="http://www.w3.org/2000/svg" xmlns:xlink="http://www.w3.org/1999/xlink" width="24" height="24" viewBox="0 0 24 24">
  <defs>
    <clipPath id="clip-path">
      <path id="Bounding_box" data-name="Bounding box" d="M0,0H24V24H0Z" fill="#004aad" style="isolation: isolate"/>
    </clipPath>
  </defs>
  <g id="phone_in_talk" clip-path="url(#clip-path)" style="isolation: isolate">
    <path id="phone_in_talk-2" data-name="phone_in_talk" d="M13.962,4.037A6.754,6.754,0,0,0,9,2V0a8.707,8.707,0,0,1,3.512.712,9.042,9.042,0,0,1,4.775,4.775A8.707,8.707,0,0,1,18,9H16A6.754,6.754,0,0,0,13.962,4.037ZM11.125,6.875A2.893,2.893,0,0,0,9,6V4a4.819,4.819,0,0,1,3.538,1.463A4.819,4.819,0,0,1,14,9H12A2.893,2.893,0,0,0,11.125,6.875Zm-.35,9.763a18.471,18.471,0,0,1-5.55-3.863,18.473,18.473,0,0,1-3.862-5.55A15.011,15.011,0,0,1,0,1.05,1.025,1.025,0,0,1,1.05,0H5.1a.93.93,0,0,1,.625.237A.914.914,0,0,1,6.05.8L6.7,4.3a1.764,1.764,0,0,1-.025.675A1.052,1.052,0,0,1,6.4,5.45L3.975,7.9A12.093,12.093,0,0,0,5.162,9.688,17.58,17.58,0,0,0,6.675,11.35,17.586,17.586,0,0,0,8.3,12.788,15.806,15.806,0,0,0,10.1,14l2.35-2.35a1.4,1.4,0,0,1,.588-.337,1.611,1.611,0,0,1,.712-.062l3.45.7a1.157,1.157,0,0,1,.575.363A.88.88,0,0,1,18,12.9v4.05A1.025,1.025,0,0,1,16.95,18,15.011,15.011,0,0,1,10.775,16.638ZM4.675,4.35,4.25,2H2.025q.125,1.025.35,2.025A10.952,10.952,0,0,0,3.025,6Zm9.287,11.275A12.2,12.2,0,0,0,16,15.95v-2.2l-2.35-.475L11.975,14.95A12.421,12.421,0,0,0,13.962,15.625Z" transform="translate(3 3)" fill="#004aad" style="isolation: isolate"/>
  </g>
</svg>
