<svg id="Building_-_24" data-name="Building - 24" xmlns="http://www.w3.org/2000/svg" width="40.384" height="40.139" viewBox="0 0 40.384 40.139">
  <path id="Path_91" data-name="Path 91" d="M233.832,87.129a1.9,1.9,0,1,0-1.9-1.9A1.9,1.9,0,0,0,233.832,87.129Zm0-2.614a.715.715,0,1,1-.715.715A.716.716,0,0,1,233.832,84.515Zm0,0" transform="translate(-213.64 -76.799)" fill="#fff"/>
  <path id="Path_92" data-name="Path 92" d="M39.793,36.842h-.715V34.82a.592.592,0,0,0-.592-.592H36.464V32.207a.592.592,0,0,0-.592-.592h-.715V18.669h.715a.592.592,0,0,0,.592-.592V16.056h2.022a.592.592,0,0,0,.592-.592V12.851a.592.592,0,0,0-.592-.592H37.364L20.529.6a.592.592,0,0,0-.674,0L3.02,12.26H1.9a.592.592,0,0,0-.592.592v2.613a.592.592,0,0,0,.592.592H3.92v2.022a.592.592,0,0,0,.592.592h.715V31.615H4.512a.592.592,0,0,0-.592.592v2.022H1.9a.592.592,0,0,0-.592.592v2.022H.592A.591.591,0,0,0,0,37.433v2.613a.591.591,0,0,0,.592.592h39.2a.591.591,0,0,0,.592-.592V37.433A.592.592,0,0,0,39.793,36.842Zm-4.512-2.613h-5.35V32.8h5.35Zm-4.044-2.613V18.669h2.737V31.615Zm4.044-14.129h-5.35v-1.43h5.35Zm-5.942,1.183h.715V31.615h-.715a.591.591,0,0,0-.592.592v2.022h-4.7V32.207a.592.592,0,0,0-.592-.592h-.715V18.669h.715a.592.592,0,0,0,.592-.592V16.056h4.7v2.022A.592.592,0,0,0,29.339,18.669ZM17.517,16.056h5.35v1.43h-5.35Zm1.306,2.613h2.737V31.615H18.824ZM22.867,32.8v1.43h-5.35V32.8ZM2.49,13.443H12.813a.592.592,0,1,0,0-1.183H5.1L20.192,1.81,35.286,12.26H15.18a.592.592,0,0,0,0,1.183H37.894v1.43H2.49ZM5.1,16.056h5.351v1.43H5.1Zm4.044,2.613V31.615H6.41V18.669ZM5.1,32.8h5.351v1.43H5.1Zm5.942-1.183H10.33V18.669h.715a.592.592,0,0,0,.592-.592V16.056h4.7v2.022a.592.592,0,0,0,.592.592h.715V31.615h-.715a.591.591,0,0,0-.592.592v2.022h-4.7V32.207A.592.592,0,0,0,11.045,31.615Zm-8.556,3.8h35.4v1.43H2.49ZM39.2,39.455H1.183v-1.43H39.2Zm0,0" transform="translate(0 -0.499)" fill="#fff"/>
</svg>
