<svg id="Building_-_39" data-name="Building - 39" xmlns="http://www.w3.org/2000/svg" width="40.147" height="40.148" viewBox="0 0 40.147 40.148">
  <g id="Group_125" data-name="Group 125" transform="translate(14.367 13.099)">
    <g id="Group_124" data-name="Group 124" transform="translate(0 0)">
      <rect id="Rectangle_62" data-name="Rectangle 62" width="0.731" height="2.193" transform="translate(0 0)" fill="#fff"/>
    </g>
  </g>
  <g id="Group_127" data-name="Group 127" transform="translate(14.367 16.024)">
    <g id="Group_126" data-name="Group 126" transform="translate(0 0)">
      <rect id="Rectangle_63" data-name="Rectangle 63" width="0.731" height="1.462" fill="#fff"/>
    </g>
  </g>
  <g id="Group_129" data-name="Group 129" transform="translate(14.367 18.948)">
    <g id="Group_128" data-name="Group 128" transform="translate(0 0)">
      <rect id="Rectangle_64" data-name="Rectangle 64" width="0.731" height="1.462" fill="#fff"/>
    </g>
  </g>
  <g id="Group_131" data-name="Group 131" transform="translate(14.367 21.141)">
    <g id="Group_130" data-name="Group 130" transform="translate(0 0)">
      <rect id="Rectangle_65" data-name="Rectangle 65" width="0.731" height="2.193" fill="#fff"/>
    </g>
  </g>
  <g id="Group_133" data-name="Group 133" transform="translate(16.56 13.099)">
    <g id="Group_132" data-name="Group 132" transform="translate(0 0)">
      <rect id="Rectangle_66" data-name="Rectangle 66" width="1.462" height="2.193" transform="translate(0 0)" fill="#fff"/>
    </g>
  </g>
  <g id="Group_135" data-name="Group 135" transform="translate(16.56 16.024)">
    <g id="Group_134" data-name="Group 134" transform="translate(0 0)">
      <rect id="Rectangle_67" data-name="Rectangle 67" width="1.462" height="1.462" fill="#fff"/>
    </g>
  </g>
  <g id="Group_137" data-name="Group 137" transform="translate(16.56 18.948)">
    <g id="Group_136" data-name="Group 136" transform="translate(0 0)">
      <rect id="Rectangle_68" data-name="Rectangle 68" width="1.462" height="1.462" fill="#fff"/>
    </g>
  </g>
  <g id="Group_139" data-name="Group 139" transform="translate(16.56 21.141)">
    <g id="Group_138" data-name="Group 138" transform="translate(0 0)">
      <rect id="Rectangle_69" data-name="Rectangle 69" width="1.462" height="2.193" fill="#fff"/>
    </g>
  </g>
  <g id="Group_141" data-name="Group 141" transform="translate(19.485 13.099)">
    <g id="Group_140" data-name="Group 140" transform="translate(0 0)">
      <rect id="Rectangle_70" data-name="Rectangle 70" width="0.731" height="2.193" transform="translate(0 0)" fill="#fff"/>
    </g>
  </g>
  <g id="Group_143" data-name="Group 143" transform="translate(19.485 16.024)">
    <g id="Group_142" data-name="Group 142" transform="translate(0 0)">
      <rect id="Rectangle_71" data-name="Rectangle 71" width="0.731" height="1.462" fill="#fff"/>
    </g>
  </g>
  <g id="Group_145" data-name="Group 145" transform="translate(19.485 18.948)">
    <g id="Group_144" data-name="Group 144" transform="translate(0 0)">
      <rect id="Rectangle_72" data-name="Rectangle 72" width="0.731" height="1.462" fill="#fff"/>
    </g>
  </g>
  <g id="Group_147" data-name="Group 147" transform="translate(19.485 21.141)">
    <g id="Group_146" data-name="Group 146" transform="translate(0 0)">
      <rect id="Rectangle_73" data-name="Rectangle 73" width="0.731" height="2.193" fill="#fff"/>
    </g>
  </g>
  <g id="Group_149" data-name="Group 149" transform="translate(22.409 13.099)">
    <g id="Group_148" data-name="Group 148" transform="translate(0 0)">
      <rect id="Rectangle_74" data-name="Rectangle 74" width="0.731" height="2.193" transform="translate(0 0)" fill="#fff"/>
    </g>
  </g>
  <g id="Group_151" data-name="Group 151" transform="translate(16.56 10.906)">
    <g id="Group_150" data-name="Group 150" transform="translate(0 0)">
      <rect id="Rectangle_75" data-name="Rectangle 75" width="1.462" height="1.462" fill="#fff"/>
    </g>
  </g>
  <g id="Group_153" data-name="Group 153" transform="translate(19.485 10.906)">
    <g id="Group_152" data-name="Group 152" transform="translate(0 0)">
      <rect id="Rectangle_76" data-name="Rectangle 76" width="0.731" height="1.462" fill="#fff"/>
    </g>
  </g>
  <g id="Group_155" data-name="Group 155" transform="translate(22.409 10.906)">
    <g id="Group_154" data-name="Group 154" transform="translate(0 0)">
      <rect id="Rectangle_77" data-name="Rectangle 77" width="0.731" height="1.462" transform="translate(0)" fill="#fff"/>
    </g>
  </g>
  <g id="Group_157" data-name="Group 157" transform="translate(22.409 16.024)">
    <g id="Group_156" data-name="Group 156" transform="translate(0 0)">
      <rect id="Rectangle_78" data-name="Rectangle 78" width="0.731" height="1.462" transform="translate(0)" fill="#fff"/>
    </g>
  </g>
  <g id="Group_159" data-name="Group 159" transform="translate(22.409 18.948)">
    <g id="Group_158" data-name="Group 158" transform="translate(0 0)">
      <rect id="Rectangle_79" data-name="Rectangle 79" width="0.731" height="1.462" transform="translate(0)" fill="#fff"/>
    </g>
  </g>
  <g id="Group_161" data-name="Group 161" transform="translate(22.409 21.141)">
    <g id="Group_160" data-name="Group 160" transform="translate(0 0)">
      <rect id="Rectangle_80" data-name="Rectangle 80" width="0.731" height="2.193" transform="translate(0)" fill="#fff"/>
    </g>
  </g>
  <g id="Group_163" data-name="Group 163" transform="translate(24.601 13.099)">
    <g id="Group_162" data-name="Group 162" transform="translate(0 0)">
      <rect id="Rectangle_81" data-name="Rectangle 81" width="1.462" height="2.193" transform="translate(0 0)" fill="#fff"/>
    </g>
  </g>
  <g id="Group_165" data-name="Group 165" transform="translate(24.601 16.024)">
    <g id="Group_164" data-name="Group 164" transform="translate(0 0)">
      <rect id="Rectangle_82" data-name="Rectangle 82" width="1.462" height="1.462" fill="#fff"/>
    </g>
  </g>
  <g id="Group_167" data-name="Group 167" transform="translate(24.601 18.948)">
    <g id="Group_166" data-name="Group 166" transform="translate(0 0)">
      <rect id="Rectangle_83" data-name="Rectangle 83" width="1.462" height="1.462" fill="#fff"/>
    </g>
  </g>
  <g id="Group_169" data-name="Group 169" transform="translate(24.601 21.141)">
    <g id="Group_168" data-name="Group 168" transform="translate(0 0)">
      <rect id="Rectangle_84" data-name="Rectangle 84" width="1.462" height="2.193" fill="#fff"/>
    </g>
  </g>
  <g id="Group_171" data-name="Group 171" transform="translate(0 0)">
    <g id="Group_170" data-name="Group 170">
      <path id="Path_89" data-name="Path 89" d="M39.479,10.037H29.442V.669A.669.669,0,0,0,28.773,0h-17.4a.669.669,0,0,0-.669.668h0v9.368H.669A.669.669,0,0,0,0,10.705H0V34.795a.669.669,0,0,0,.668.669h1.4a4.015,4.015,0,0,0-.06.669v3.346a.669.669,0,0,0,.668.669h34.8a.669.669,0,0,0,.669-.668h0V36.133a4,4,0,0,0-.06-.669h1.4a.669.669,0,0,0,.669-.668h0V10.706A.669.669,0,0,0,39.479,10.037ZM28.772,28.772a1.338,1.338,0,1,1-1.338-1.338A1.338,1.338,0,0,1,28.772,28.772ZM12.713,27.434a1.338,1.338,0,1,1-1.338,1.338A1.338,1.338,0,0,1,12.713,27.434ZM8.7,38.809H3.346V36.133a2.677,2.677,0,0,1,5.353,0ZM4.684,30.78a1.338,1.338,0,1,1,1.338,1.338A1.338,1.338,0,0,1,4.684,30.78ZM8.8,33.241a4.033,4.033,0,0,0-.842-.623,2.677,2.677,0,1,0-3.872,0,4.041,4.041,0,0,0-1.535,1.508H1.338V11.375h9.368V27.021a2.64,2.64,0,0,0,.071,3.59A4.026,4.026,0,0,0,8.8,33.241Zm6.59,5.568H10.037V34.125a2.677,2.677,0,0,1,5.353,0Zm8.03,0H16.728V34.125a3.346,3.346,0,0,1,6.691,0ZM18.066,27.434a2.007,2.007,0,1,1,2.007,2.007A2.007,2.007,0,0,1,18.066,27.434Zm6.083,4.391a4.713,4.713,0,0,0-1.92-1.853,3.346,3.346,0,1,0-4.311,0A4.713,4.713,0,0,0,16,31.825,4.041,4.041,0,0,0,14.65,30.61a2.657,2.657,0,0,0-2.605-4.42V1.338H28.1V26.191A2.665,2.665,0,0,0,25.5,30.61,4.041,4.041,0,0,0,24.149,31.825Zm5.962,4.308v2.677H24.758V34.125a2.677,2.677,0,0,1,5.353,0ZM36.8,38.809H31.449V36.133a2.677,2.677,0,0,1,5.353,0Zm-4.015-8.03a1.338,1.338,0,1,1,1.338,1.338A1.338,1.338,0,0,1,32.787,30.78Zm6.022,3.346H37.6a4.041,4.041,0,0,0-1.535-1.508,2.677,2.677,0,1,0-3.872,0,4.031,4.031,0,0,0-.842.623,4.026,4.026,0,0,0-1.977-2.63,2.64,2.64,0,0,0,.071-3.59V11.375h9.368v22.75Z" transform="translate(0 0)" fill="#fff"/>
    </g>
  </g>
  <g id="Group_173" data-name="Group 173" transform="translate(31.181 15.292)">
    <g id="Group_172" data-name="Group 172" transform="translate(0 0)">
      <rect id="Rectangle_85" data-name="Rectangle 85" width="1.462" height="10.234" transform="translate(0)" fill="#fff"/>
    </g>
  </g>
  <g id="Group_175" data-name="Group 175" transform="translate(35.567 15.292)">
    <g id="Group_174" data-name="Group 174" transform="translate(0 0)">
      <rect id="Rectangle_86" data-name="Rectangle 86" width="0.731" height="10.234" fill="#fff"/>
    </g>
  </g>
  <g id="Group_177" data-name="Group 177" transform="translate(3.402 15.292)">
    <g id="Group_176" data-name="Group 176" transform="translate(0 0)">
      <rect id="Rectangle_87" data-name="Rectangle 87" width="0.731" height="10.234" transform="translate(0)" fill="#fff"/>
    </g>
  </g>
  <g id="Group_179" data-name="Group 179" transform="translate(7.057 15.292)">
    <g id="Group_178" data-name="Group 178" transform="translate(0 0)">
      <rect id="Rectangle_88" data-name="Rectangle 88" width="1.462" height="10.234" fill="#fff"/>
    </g>
  </g>
  <g id="Group_181" data-name="Group 181" transform="translate(15.39 2.677)">
    <g id="Group_180" data-name="Group 180">
      <path id="Path_90" data-name="Path 90" d="M192.7,32h-8.03a.669.669,0,0,0-.669.668h0v5.353a.669.669,0,0,0,.668.669h8.03a.669.669,0,0,0,.669-.668h0V32.669A.669.669,0,0,0,192.7,32Zm-.67,5.353h-6.691V33.338h6.691Z" transform="translate(-184 -32)" fill="#fff"/>
    </g>
  </g>
</svg>
