<svg width="45" height="44" viewBox="0 0 45 44" fill="none" xmlns="http://www.w3.org/2000/svg">
<path d="M44.126 22C44.126 9.84974 34.2763 0 22.126 0C9.97574 0 0.126007 9.84974 0.126007 22C0.126007 34.1503 9.97574 44 22.126 44C34.2763 44 44.126 34.1503 44.126 22Z" fill="white"/>
<mask id="mask0_171_2" style="mask-type:luminance" maskUnits="userSpaceOnUse" x="10" y="10" width="25" height="24">
<path d="M10.126 10H34.126V34H10.126V10Z" fill="white"/>
</mask>
<g mask="url(#mask0_171_2)">
<path d="M27.088 17.037C26.4439 16.3766 25.6713 15.8551 24.8179 15.5048C23.9645 15.1545 23.0484 14.9827 22.126 15V13C23.3334 12.9913 24.5294 13.2337 25.638 13.712C27.7866 14.6273 29.4977 16.3384 30.413 18.487C30.8918 19.5959 31.1346 20.7922 31.126 22H29.126C29.1434 21.0774 28.9715 20.161 28.621 19.3075C28.2704 18.4539 27.7487 17.6812 27.088 17.037ZM24.251 19.875C23.9754 19.5917 23.6446 19.3679 23.2791 19.2174C22.9136 19.067 22.5212 18.9929 22.126 19V17C22.7844 16.9892 23.438 17.1134 24.0465 17.3651C24.655 17.6167 25.2055 17.9904 25.664 18.463C26.1364 18.9215 26.5098 19.4718 26.7612 20.0801C27.0127 20.6885 27.1368 21.3418 27.126 22H25.126C25.1331 21.6048 25.0591 21.2124 24.9086 20.8469C24.7581 20.4814 24.5343 20.1506 24.251 19.875ZM23.901 29.638C21.8291 28.7028 19.9475 27.3932 18.351 25.775C16.7332 24.1784 15.4239 22.2968 14.489 20.225C13.6014 18.2868 13.1367 16.1818 13.126 14.05C13.1226 13.9112 13.1474 13.7731 13.199 13.6442C13.2505 13.5152 13.3277 13.3981 13.4259 13.2999C13.5241 13.2017 13.6412 13.1245 13.7702 13.0729C13.8991 13.0214 14.0372 12.9966 14.176 13H18.226C18.4565 12.9988 18.6793 13.0833 18.851 13.237C19.0247 13.3785 19.1403 13.5788 19.176 13.8L19.826 17.3C19.8612 17.5245 19.8528 17.7537 19.801 17.975C19.753 18.1549 19.6581 18.3188 19.526 18.45L17.101 20.9C17.4429 21.53 17.8401 22.1284 18.288 22.688C18.7564 23.2737 19.2617 23.8288 19.801 24.35C20.3126 24.8623 20.8553 25.3426 21.426 25.788C21.9975 26.2328 22.599 26.6377 23.226 27L25.576 24.65C25.7415 24.4912 25.9434 24.3755 26.164 24.313C26.3937 24.2393 26.637 24.2181 26.876 24.251L30.326 24.951C30.5497 25.0117 30.75 25.1381 30.901 25.314C31.0455 25.475 31.1256 25.6836 31.126 25.9V29.95C31.1294 30.0888 31.1046 30.2269 31.0531 30.3558C31.0015 30.4848 30.9243 30.6019 30.8261 30.7001C30.7279 30.7983 30.6108 30.8755 30.4819 30.9271C30.3529 30.9786 30.2148 31.0034 30.076 31C27.9443 30.9896 25.8393 30.5253 23.901 29.638ZM17.801 17.35L17.376 15H15.151C15.2343 15.6833 15.351 16.3583 15.501 17.025C15.6546 17.7025 15.8722 18.3638 16.151 19L17.801 17.35ZM27.088 28.625C27.7569 28.7907 28.4387 28.8994 29.126 28.95V26.75L26.776 26.275L25.101 27.95C25.7431 28.2306 26.4078 28.4565 27.088 28.625Z" fill="#004AAD"/>
</g>
</svg>
