<svg id="Group_238" data-name="Group 238" xmlns="http://www.w3.org/2000/svg" width="17.039" height="19.547" viewBox="0 0 17.039 19.547">
  <path id="Path_111" data-name="Path 111" d="M4026.35,95.717a8,8,0,0,0,4.665,1.492V93.864a4.715,4.715,0,0,1-.98-.1v2.633a8,8,0,0,1-4.664-1.492v6.827a6.189,6.189,0,0,1-9.631,5.138,6.188,6.188,0,0,0,10.611-4.323V95.717Zm1.208-3.375a4.657,4.657,0,0,1-1.208-2.73v-.43h-.929a4.686,4.686,0,0,0,2.137,3.16m-9.658,11.9a2.831,2.831,0,0,1,3.111-4.408v-3.42a6.243,6.243,0,0,0-.979-.056v2.662a2.829,2.829,0,0,0-2.132,5.223" transform="translate(-4013.976 -89.182)" fill="#fff" fill-rule="evenodd"/>
  <path id="Path_112" data-name="Path 112" d="M4001.365,94.9a8,8,0,0,0,4.664,1.492V93.761a7.382,7.382,0,0,1-4.613-4.579h-2.438v13.362a4,4,0,1,1-2.951-3.52V96.362a5.791,5.791,0,1,0,5.338,5.368Z" transform="translate(-3989.97 -89.182)" fill="#fff" fill-rule="evenodd"/>
</svg>
