<svg id="Group_237" data-name="Group 237" xmlns="http://www.w3.org/2000/svg" width="17.543" height="17.468" viewBox="0 0 17.543 17.468">
  <rect id="Rectangle_107" data-name="Rectangle 107" width="3.633" height="11.669" transform="translate(0.249 5.798)" fill="#fff"/>
  <path id="Path_100" data-name="Path 100" d="M2683.3,86.042a2.1,2.1,0,0,0,0,4.206,2.1,2.1,0,0,0,0-4.206" transform="translate(-2681.239 -86.042)" fill="#fff"/>
  <path id="Path_101" data-name="Path 101" d="M2782.6,172.517v-.036h0c-.023-3.185-.684-6.1-4.425-5.978a3.812,3.812,0,0,0-3.434,1.885h-.047v-1.6h-3.479v11.669h3.625V172.69c0-1.522.288-3,2.176-3,1.858,0,1.885,1.74,1.885,3.094v5.673h3.625c.006-.8.073-5.244.076-5.944" transform="translate(-2765.052 -160.994)" fill="#fff"/>
</svg>
