<svg width="277" height="56" viewBox="0 0 277 56" fill="none" xmlns="http://www.w3.org/2000/svg">
<mask id="mask0_157_2001" style="mask-type:luminance" maskUnits="userSpaceOnUse" x="0" y="0" width="277" height="56">
<path d="M276.252 0H0.0610352V55.044H276.252V0Z" fill="white"/>
</mask>
<g mask="url(#mask0_157_2001)">
<path fill-rule="evenodd" clip-rule="evenodd" d="M274.944 35.769C274.525 35.7501 274.105 35.7973 273.7 35.909C273.331 36.0566 272.993 36.2731 272.705 36.547L272.662 36.579L272.467 35.769H271.167V41.52H272.967V37.95L273.302 37.69C273.632 37.4642 274.027 37.3542 274.426 37.377H276.244V35.769H274.944ZM264.344 37.769C264.344 37.196 264.528 37.023 265.101 37.023H267.577C268.15 37.023 268.334 37.196 268.334 37.769V37.877H264.344V37.769ZM264.42 35.769C263.09 35.769 262.539 36.309 262.539 37.65V39.639C262.539 40.98 263.09 41.52 264.42 41.52H268.453C269.566 41.52 270.074 41.02 270.074 39.898V39.398H268.344V39.549C268.344 39.993 268.182 40.155 267.738 40.155H265.111C264.538 40.155 264.354 39.982 264.354 39.409V38.933H270.084V37.648C270.084 36.307 269.532 35.767 268.203 35.767L264.42 35.769ZM261.782 35.769H258.798V34.469H257.36L257.003 35.769H255.468V37.139H257.003V39.896C257.003 41.02 257.511 41.518 258.625 41.518H261.782V40.112H259.403C258.96 40.112 258.803 39.95 258.803 39.506V37.139H261.787L261.782 35.769ZM251.082 35.769C250.671 35.7534 250.259 35.7969 249.86 35.898C249.508 36.0415 249.183 36.2426 248.898 36.493L248.744 35.769H247.244V41.52H249.044V37.777L249.379 37.517C249.709 37.2913 250.104 37.1812 250.503 37.204H252.222C252.795 37.204 252.968 37.377 252.968 37.95V41.518H254.773V37.648C254.773 36.307 254.222 35.767 252.892 35.767L251.082 35.769ZM240.422 37.769C240.422 37.196 240.606 37.023 241.179 37.023H243.655C244.228 37.023 244.412 37.196 244.412 37.769V37.877H240.423L240.422 37.769ZM240.498 35.769C239.168 35.769 238.617 36.309 238.617 37.65V39.639C238.617 40.98 239.168 41.52 240.498 41.52H244.531C245.645 41.52 246.153 41.02 246.153 39.898V39.398H244.412V39.549C244.412 39.993 244.25 40.155 243.807 40.155H241.179C240.606 40.155 240.422 39.982 240.422 39.409V38.933H246.152V37.648C246.152 36.307 245.601 35.767 244.271 35.767L240.498 35.769ZM235.536 41.52C235.822 41.5672 236.116 41.5456 236.392 41.4567C236.669 41.3679 236.92 41.2145 237.125 41.0092C237.331 40.804 237.484 40.5527 237.573 40.2764C237.662 40 237.683 39.7064 237.636 39.42V38.459H235.798V39.075C235.798 39.734 235.571 39.961 234.911 39.961H231.689C231.04 39.961 230.802 39.734 230.802 39.075V36.393C230.802 35.734 231.04 35.507 231.689 35.507H234.911C235.57 35.507 235.798 35.734 235.798 36.393V36.934H237.636V36.047C237.683 35.7606 237.662 35.467 237.573 35.1906C237.484 34.9143 237.331 34.663 237.125 34.4578C236.92 34.2525 236.669 34.0991 236.392 34.0103C236.116 33.9214 235.822 33.8998 235.536 33.947H230.995C230.709 33.8998 230.415 33.9214 230.139 34.0103C229.862 34.0991 229.611 34.2525 229.406 34.4578C229.2 34.663 229.047 34.9143 228.958 35.1906C228.869 35.467 228.848 35.7606 228.895 36.047V39.42C228.848 39.7064 228.869 40 228.958 40.2764C229.047 40.5527 229.2 40.804 229.406 41.0092C229.611 41.2145 229.862 41.3679 230.139 41.4567C230.415 41.5456 230.709 41.5672 230.995 41.52H235.536ZM220.962 39.812L218.824 35.769H216.759L220.035 41.315C219.921 41.5094 219.75 41.6643 219.545 41.759C219.34 41.8537 219.111 41.8837 218.889 41.845H217.344V43.25H218.771C219.377 43.2871 219.983 43.172 220.533 42.915C221.031 42.5711 221.433 42.1061 221.701 41.564L225.128 35.769H223.139L220.962 39.812ZM216.478 35.769H213.494V34.469H212.056L211.699 35.769H210.164V37.139H211.699V39.896C211.699 41.02 212.207 41.518 213.32 41.518H216.477V40.112H214.098C213.655 40.112 213.493 39.95 213.493 39.506V37.139H216.477L216.478 35.769ZM209.386 35.769H207.544V41.52H209.382L209.386 35.769ZM209.386 33.952H207.544V35.228H209.382L209.386 33.952ZM205.461 35.769C205.042 35.7501 204.622 35.7973 204.218 35.909C203.847 36.056 203.508 36.2726 203.218 36.547L203.175 36.579L202.98 35.769H201.68V41.52H203.475V37.95L203.81 37.69C204.14 37.4643 204.535 37.3543 204.934 37.377H206.751V35.769H205.461ZM198.704 35.769V39.509L198.369 39.769C198.039 39.9952 197.644 40.1056 197.245 40.083H195.526C194.953 40.083 194.78 39.91 194.78 39.337V35.769H192.975V39.639C192.975 40.98 193.526 41.52 194.856 41.52H196.661C197.073 41.5384 197.486 41.4908 197.883 41.379C198.236 41.2444 198.562 41.0465 198.845 40.795L199.007 41.519H200.499V35.769H198.704ZM184.573 39.639C184.573 40.98 185.124 41.52 186.454 41.52H190.044C191.374 41.52 191.925 40.98 191.925 39.639V39.088H190.196V39.369C190.196 39.942 190.012 40.115 189.439 40.115H187.124C186.551 40.115 186.367 39.942 186.367 39.369V37.918C186.367 37.345 186.551 37.172 187.124 37.172H189.438C190.011 37.172 190.195 37.345 190.195 37.918V38.134H191.924V37.648C191.924 36.307 191.373 35.767 190.043 35.767H186.454C185.124 35.767 184.573 36.307 184.573 37.648V39.639ZM177.844 37.769C177.844 37.196 178.028 37.023 178.601 37.023H181.077C181.65 37.023 181.834 37.196 181.834 37.769V37.877H177.844V37.769ZM177.92 35.769C176.59 35.769 176.038 36.309 176.038 37.65V39.639C176.038 40.98 176.59 41.52 177.92 41.52H181.952C183.065 41.52 183.574 41.02 183.574 39.898V39.398H181.833V39.549C181.833 39.993 181.67 40.155 181.227 40.155H178.6C178.027 40.155 177.843 39.982 177.843 39.409V38.933H183.573V37.648C183.573 36.307 183.022 35.767 181.692 35.767L177.92 35.769ZM166.22 39.899C166.22 41.023 166.728 41.521 167.842 41.521H173.41C174.524 41.521 175.032 41.021 175.032 39.899V38.664C175.032 37.55 174.545 37.118 173.41 37.042L168.848 36.742C168.383 36.71 168.242 36.58 168.242 36.136V35.995C168.242 35.552 168.404 35.39 168.848 35.39H172.427C172.871 35.39 173.033 35.552 173.033 35.995V36.157H174.882V35.569C174.882 34.445 174.374 33.947 173.26 33.947H167.952C166.838 33.947 166.33 34.447 166.33 35.569V36.607C166.33 37.699 166.817 38.142 167.952 38.229L172.514 38.529C172.979 38.572 173.12 38.691 173.12 39.135V39.47C173.12 39.914 172.958 40.076 172.514 40.076H168.676C168.233 40.076 168.071 39.914 168.071 39.47V39.178H166.222L166.22 39.899ZM161.02 35.769C160.601 35.7501 160.181 35.7973 159.777 35.909C159.406 36.0561 159.067 36.2727 158.777 36.547L158.734 36.579L158.54 35.769H157.24V41.52H159.044V37.95L159.379 37.69C159.709 37.4642 160.104 37.3542 160.503 37.377H162.32V35.769H161.02ZM150.42 37.769C150.42 37.196 150.604 37.023 151.177 37.023H153.653C154.226 37.023 154.41 37.196 154.41 37.769V37.877H150.421L150.42 37.769ZM150.496 35.769C149.166 35.769 148.615 36.309 148.615 37.65V39.639C148.615 40.98 149.166 41.52 150.496 41.52H154.529C155.642 41.52 156.15 41.02 156.15 39.898V39.398H154.409V39.549C154.409 39.993 154.247 40.155 153.803 40.155H151.176C150.603 40.155 150.419 39.982 150.419 39.409V38.933H156.149V37.648C156.149 36.307 155.598 35.767 154.268 35.767L150.496 35.769ZM145.814 39.369C145.814 39.942 145.641 40.115 145.068 40.115H143.241C142.844 40.1416 142.448 40.0362 142.117 39.815L141.782 39.555V37.734L142.117 37.474C142.446 37.2484 142.843 37.1425 143.241 37.174H145.068C145.641 37.174 145.814 37.347 145.814 37.92V39.369ZM143.825 35.769C143.433 35.7556 143.04 35.7919 142.657 35.877C142.333 35.9845 142.035 36.1574 141.781 36.385V33.95H139.981V41.518H141.473L141.635 40.794C141.918 41.0454 142.244 41.2433 142.597 41.378C142.994 41.4898 143.407 41.5374 143.819 41.519H145.744C147.074 41.519 147.625 40.979 147.625 39.638V37.648C147.625 36.307 147.074 35.767 145.744 35.767L143.825 35.769ZM135.208 39.812L133.077 35.769H131.012L134.288 41.315C134.174 41.5094 134.003 41.6643 133.798 41.759C133.593 41.8537 133.364 41.8837 133.142 41.845H131.596V43.25H133.023C133.629 43.2873 134.235 43.1721 134.785 42.915C135.283 42.5712 135.685 42.1062 135.953 41.564L139.38 35.769H137.391L135.208 39.812ZM128.397 41.52C128.683 41.5672 128.977 41.5456 129.253 41.4567C129.53 41.3679 129.781 41.2145 129.986 41.0092C130.192 40.804 130.345 40.5527 130.434 40.2764C130.523 40 130.544 39.7064 130.497 39.42V38.459H128.659V39.075C128.659 39.734 128.432 39.961 127.773 39.961H124.551C123.902 39.961 123.664 39.734 123.664 39.075V36.393C123.664 35.734 123.902 35.507 124.551 35.507H127.773C128.432 35.507 128.659 35.734 128.659 36.393V36.934H130.497V36.047C130.544 35.7606 130.523 35.467 130.434 35.1906C130.345 34.9143 130.192 34.663 129.986 34.4578C129.781 34.2525 129.53 34.0991 129.253 34.0103C128.977 33.9214 128.683 33.8998 128.397 33.947H123.856C123.57 33.8998 123.276 33.9214 123 34.0103C122.723 34.0991 122.472 34.2525 122.267 34.4578C122.061 34.663 121.908 34.9143 121.819 35.1906C121.73 35.467 121.709 35.7606 121.756 36.047V39.42C121.709 39.7064 121.73 40 121.819 40.2764C121.908 40.5527 122.061 40.804 122.267 41.0092C122.472 41.2145 122.723 41.3679 123 41.4567C123.276 41.5456 123.57 41.5672 123.856 41.52H128.397ZM117.38 33.952H115.553V41.52H117.38V33.952ZM109.152 40.363C108.752 40.363 108.633 40.244 108.633 39.844V39.66C108.633 39.271 108.752 39.141 109.152 39.141H112.558V39.789L112.18 40.081C111.902 40.2763 111.568 40.375 111.228 40.362L109.152 40.363ZM108.709 35.768C107.595 35.768 107.087 36.268 107.087 37.389V37.778H108.828V37.616C108.828 37.173 108.99 37.01 109.433 37.01H111.801C112.374 37.01 112.558 37.183 112.558 37.757V38.169H108.19C108.005 38.1416 107.816 38.1579 107.638 38.2166C107.46 38.2753 107.298 38.3748 107.166 38.5072C107.033 38.6396 106.934 38.8011 106.875 38.9789C106.816 39.1567 106.8 39.3457 106.827 39.531V40.158C106.8 40.3433 106.816 40.5323 106.875 40.7101C106.934 40.8879 107.033 41.0494 107.166 41.1818C107.298 41.3142 107.46 41.4137 107.638 41.4724C107.816 41.5311 108.005 41.5474 108.19 41.52H110.655C111.044 41.5339 111.434 41.4939 111.812 41.401C112.143 41.2711 112.444 41.0762 112.699 40.828L112.861 41.52H114.361V37.65C114.361 36.309 113.81 35.769 112.48 35.769L108.709 35.768ZM102.092 35.768C101.681 35.7524 101.269 35.7959 100.87 35.897C100.518 36.0405 100.193 36.2416 99.908 36.492L99.746 35.768H98.254V41.519H100.049V37.777L100.384 37.517C100.714 37.2914 101.109 37.1813 101.508 37.204H103.227C103.8 37.204 103.973 37.377 103.973 37.95V41.518H105.778V37.648C105.778 36.307 105.227 35.767 103.897 35.767L102.092 35.768ZM92.081 40.114C91.508 40.114 91.324 39.941 91.324 39.368V37.918C91.324 37.345 91.508 37.172 92.081 37.172H94.611C95.184 37.172 95.368 37.345 95.368 37.918V39.369C95.368 39.942 95.184 40.115 94.611 40.115L92.081 40.114ZM95.281 41.52C96.611 41.52 97.162 40.98 97.162 39.639V37.648C97.162 36.307 96.611 35.767 95.281 35.767H91.411C90.081 35.767 89.53 36.307 89.53 37.648V39.637C89.53 40.978 90.081 41.518 91.411 41.518L95.281 41.52ZM88.414 35.769H86.576V41.52H88.414V35.769ZM88.414 33.952H86.576V35.228H88.414V33.952ZM85.679 35.769H82.695V34.469H81.257L80.9 35.769H79.365V37.139H80.9V39.896C80.9 41.02 81.408 41.518 82.522 41.518H85.679V40.112H83.3C82.857 40.112 82.694 39.95 82.694 39.506V37.139H85.678L85.679 35.769ZM73.451 40.364C73.051 40.364 72.932 40.245 72.932 39.845V39.661C72.932 39.272 73.051 39.142 73.451 39.142H76.857V39.79L76.478 40.082C76.2003 40.2771 75.8662 40.3759 75.527 40.363L73.451 40.364ZM73.007 35.769C71.894 35.769 71.386 36.269 71.386 37.39V37.779H73.126V37.617C73.126 37.174 73.288 37.011 73.732 37.011H76.1C76.673 37.011 76.857 37.184 76.857 37.758V38.169H72.489C72.3038 38.1417 72.1149 38.1582 71.9372 38.217C71.7595 38.2758 71.598 38.3753 71.4657 38.5077C71.3333 38.64 71.2338 38.8015 71.175 38.9792C71.1162 39.1569 71.0997 39.3458 71.127 39.531V40.158C71.0997 40.3432 71.1162 40.5321 71.175 40.7098C71.2338 40.8875 71.3333 41.049 71.4657 41.1813C71.598 41.3137 71.7595 41.4132 71.9372 41.472C72.1149 41.5308 72.3038 41.5473 72.489 41.52H74.954C75.3433 41.5339 75.7327 41.4938 76.111 41.401C76.4416 41.2709 76.7428 41.0761 76.997 40.828L77.159 41.52H78.659V37.65C78.659 36.309 78.108 35.769 76.778 35.769H73.007ZM68.185 39.069L62.736 33.955H61.115V41.523H62.953V36.333L68.489 41.523H70.024V33.95H68.186L68.185 39.069Z" fill="white"/>
<path fill-rule="evenodd" clip-rule="evenodd" d="M274.353 13.93H276.253V25.96H274.353V13.93ZM256.812 25.96C256.501 25.9637 256.195 25.8887 255.921 25.742C255.675 25.6149 255.454 25.4457 255.266 25.242V25.696C255.27 26.1737 255.203 26.6493 255.066 27.107C254.943 27.5239 254.74 27.9124 254.466 28.25C254.197 28.5752 253.858 28.8362 253.475 29.014C253.048 29.2066 252.583 29.3016 252.114 29.292C251.914 29.292 251.721 29.2837 251.534 29.267C251.35 29.25 251.19 29.23 251.055 29.208C250.966 29.1967 250.885 29.1853 250.812 29.174C250.741 29.1632 250.67 29.1461 250.602 29.123L250.802 27.208L251.273 27.308C251.406 27.33 251.549 27.3497 251.701 27.367C251.838 27.3829 251.975 27.3912 252.113 27.392C252.306 27.4162 252.502 27.3848 252.677 27.3015C252.853 27.2183 253.001 27.0866 253.104 26.922C253.296 26.4891 253.382 26.0168 253.356 25.544V19.273H255.272V22.465C255.256 22.8582 255.365 23.2464 255.583 23.574C255.731 23.7368 255.916 23.8615 256.122 23.9376C256.328 24.0136 256.55 24.0388 256.768 24.011C257.148 24.011 257.526 23.994 257.91 23.994C258.036 23.9935 258.161 23.9736 258.28 23.935C258.41 23.8911 258.523 23.8105 258.608 23.703C258.716 23.5587 258.793 23.394 258.835 23.219C258.897 22.9597 258.925 22.6935 258.919 22.427C258.914 21.9222 259.002 21.4207 259.179 20.948C259.342 20.5154 259.587 20.1186 259.902 19.78C260.219 19.4416 260.603 19.1726 261.03 18.99C261.456 18.8074 261.916 18.7151 262.38 18.719C262.848 18.6888 263.317 18.7665 263.751 18.9462C264.184 19.1258 264.57 19.4025 264.88 19.755C265.502 20.589 265.809 21.6165 265.745 22.655C265.748 22.784 265.762 22.9125 265.787 23.039C265.817 23.1992 265.884 23.3503 265.981 23.481C266.098 23.635 266.251 23.7582 266.426 23.84C266.677 23.9519 266.951 24.0036 267.226 23.991C268.055 23.991 268.882 24.008 269.713 24.008V13.93H271.613V25.96H267.177C266.739 25.9698 266.308 25.8456 265.942 25.604C265.603 25.3821 265.333 25.0705 265.161 24.704C264.99 24.9855 264.774 25.2371 264.522 25.449C264.317 25.6205 264.084 25.7557 263.833 25.849C263.595 25.9357 263.347 25.9902 263.094 26.011C262.837 26.033 262.573 26.044 262.304 26.044C261.755 26.0642 261.209 25.9477 260.716 25.705C260.311 25.4908 259.958 25.1896 259.683 24.823C259.53 25.1462 259.299 25.4262 259.011 25.638C258.725 25.8515 258.377 25.9647 258.02 25.96H256.812ZM238.699 16.651C238.697 16.5223 238.723 16.3947 238.773 16.2761C238.823 16.1575 238.897 16.0506 238.99 15.962C239.083 15.8692 239.194 15.796 239.315 15.7469C239.437 15.6977 239.568 15.6736 239.699 15.676C239.833 15.6727 239.966 15.6963 240.091 15.7455C240.215 15.7946 240.329 15.8682 240.424 15.962C240.516 16.0515 240.59 16.1586 240.64 16.2769C240.69 16.3953 240.716 16.5225 240.716 16.651C240.716 16.7795 240.69 16.9067 240.64 17.0251C240.59 17.1434 240.516 17.2505 240.424 17.34C240.329 17.4338 240.215 17.5074 240.091 17.5565C239.966 17.6057 239.833 17.6293 239.699 17.626C239.568 17.6283 239.437 17.6041 239.316 17.555C239.194 17.5059 239.083 17.4328 238.99 17.34C238.897 17.2514 238.823 17.1445 238.773 17.0259C238.723 16.9073 238.697 16.7797 238.699 16.651ZM242.177 25.96C241.866 25.9637 241.56 25.8887 241.286 25.742C241.04 25.6149 240.819 25.4456 240.631 25.242V25.696C240.635 26.1737 240.568 26.6493 240.431 27.107C240.308 27.5238 240.104 27.9122 239.831 28.25C239.562 28.5752 239.223 28.8362 238.84 29.014C238.413 29.2066 237.948 29.3015 237.479 29.292C237.279 29.292 237.086 29.2837 236.9 29.267C236.714 29.2503 236.554 29.2307 236.421 29.208C236.332 29.1967 236.25 29.1853 236.177 29.174C236.106 29.1631 236.035 29.146 235.967 29.123L236.167 27.208L236.637 27.308C236.771 27.33 236.915 27.35 237.065 27.367C237.202 27.3829 237.339 27.3912 237.477 27.392C237.67 27.4162 237.866 27.3848 238.041 27.3015C238.217 27.2183 238.365 27.0866 238.468 26.922C238.66 26.4891 238.746 26.0168 238.72 25.544V19.273H240.635V22.465C240.619 22.8582 240.728 23.2464 240.946 23.574C241.094 23.7366 241.279 23.8613 241.485 23.9373C241.691 24.0134 241.912 24.0387 242.13 24.011H247.792V22.411C247.806 22.0869 247.752 21.7635 247.632 21.462C247.542 21.2513 247.393 21.0707 247.204 20.941C247.014 20.8193 246.798 20.7443 246.574 20.722C246.32 20.6933 246.065 20.6793 245.81 20.68H243.777V18.98L247.037 13.805L248.616 14.864L246.045 18.819H246.213C246.654 18.8182 247.094 18.8688 247.523 18.97C247.932 19.0626 248.314 19.2466 248.641 19.508C248.981 19.7931 249.246 20.1565 249.414 20.567C249.627 21.1076 249.727 21.6862 249.708 22.267V25.967L242.177 25.96ZM228.853 13.93H230.753V25.96H228.853V13.93ZM220.67 25.96C220.653 26.5375 220.522 27.1059 220.283 27.632C220.075 28.0767 219.764 28.4654 219.376 28.766C218.975 29.0674 218.518 29.2872 218.032 29.413C217.477 29.5582 216.906 29.6289 216.332 29.623C216.074 29.623 215.805 29.6147 215.526 29.598C215.216 29.5779 214.908 29.5415 214.602 29.489L214.736 27.607C215.061 27.6517 215.369 27.685 215.66 27.707C215.951 27.729 216.203 27.74 216.416 27.74C216.714 27.7413 217.012 27.7189 217.307 27.673C217.571 27.6346 217.824 27.5463 218.055 27.413C218.274 27.2841 218.454 27.0986 218.576 26.876C218.718 26.5918 218.79 26.2777 218.786 25.96H217.66C217.061 25.9768 216.465 25.8769 215.904 25.666C215.467 25.497 215.071 25.235 214.745 24.898C214.454 24.5877 214.233 24.2179 214.098 23.814C213.965 23.4185 213.898 23.0041 213.898 22.587C213.896 22.0756 213.984 21.5679 214.158 21.087C214.322 20.6278 214.57 20.2032 214.889 19.835C215.2 19.4789 215.58 19.1903 216.007 18.987C216.456 18.7758 216.947 18.6695 217.443 18.676C217.906 18.668 218.365 18.7506 218.796 18.919C219.181 19.0725 219.528 19.3076 219.813 19.608C220.098 19.9123 220.316 20.2731 220.452 20.667C220.602 21.1021 220.676 21.5598 220.67 22.02V24.02H224.198V13.93H226.098V25.96H220.67ZM218.77 24.011V22.511C218.803 21.9933 218.671 21.4786 218.392 21.041C218.273 20.8753 218.115 20.7416 217.932 20.6521C217.749 20.5625 217.546 20.5199 217.342 20.528C217.142 20.5275 216.944 20.5705 216.762 20.654C216.574 20.7384 216.404 20.8583 216.262 21.007C216.112 21.1656 215.992 21.3507 215.909 21.553C215.816 21.7826 215.771 22.0285 215.775 22.276C215.767 22.5505 215.818 22.8235 215.926 23.076C216.017 23.283 216.154 23.4669 216.326 23.614C216.495 23.7542 216.693 23.8565 216.905 23.914C217.127 23.9763 217.356 24.0076 217.586 24.007L218.77 24.011ZM209.814 23.053C209.824 22.653 209.773 22.2538 209.663 21.869C209.582 21.5844 209.435 21.3227 209.235 21.105C209.049 20.9138 208.818 20.7721 208.563 20.693C208.283 20.6064 207.991 20.5639 207.698 20.567C207.31 20.571 206.927 20.654 206.572 20.811C206.183 20.9789 205.825 21.2119 205.514 21.5C204.804 22.1593 204.351 23.0497 204.237 24.012H209.815L209.814 23.053ZM196.014 16.653C196.013 16.5242 196.038 16.3965 196.088 16.2779C196.138 16.1594 196.212 16.0525 196.306 15.964C196.399 15.8713 196.509 15.7982 196.631 15.7491C196.753 15.6999 196.883 15.6758 197.014 15.678C197.148 15.6747 197.281 15.6983 197.406 15.7475C197.53 15.7966 197.644 15.8702 197.739 15.964C197.831 16.0536 197.904 16.1607 197.954 16.279C198.004 16.3974 198.03 16.5245 198.03 16.653C198.03 16.7815 198.004 16.9086 197.954 17.027C197.904 17.1453 197.831 17.2524 197.739 17.342C197.644 17.4358 197.53 17.5094 197.406 17.5585C197.281 17.6077 197.148 17.6313 197.014 17.628C196.883 17.6302 196.753 17.606 196.631 17.5569C196.509 17.5077 196.399 17.4347 196.306 17.342C196.212 17.2535 196.138 17.1466 196.088 17.0281C196.038 16.9095 196.013 16.7818 196.014 16.653ZM183.648 31.263C183.645 31.135 183.669 31.0079 183.719 30.8898C183.768 30.7717 183.841 30.6651 183.934 30.577C184.131 30.3966 184.389 30.2966 184.657 30.2966C184.924 30.2966 185.182 30.3966 185.379 30.577C185.472 30.6653 185.545 30.7718 185.594 30.89C185.643 31.0081 185.667 31.1351 185.664 31.263C185.668 31.3931 185.644 31.5224 185.595 31.6429C185.546 31.7634 185.472 31.8724 185.379 31.963C185.182 32.1432 184.924 32.2431 184.657 32.2431C184.389 32.2431 184.132 32.1432 183.934 31.963C183.84 31.8725 183.767 31.7636 183.717 31.6431C183.668 31.5226 183.645 31.3931 183.648 31.263ZM181.048 31.263C181.045 31.135 181.069 31.0079 181.119 30.8898C181.168 30.7717 181.241 30.6651 181.334 30.577C181.531 30.3966 181.789 30.2966 182.057 30.2966C182.324 30.2966 182.582 30.3966 182.779 30.577C182.872 30.6652 182.945 30.7718 182.994 30.8899C183.043 31.008 183.067 31.1351 183.064 31.263C183.068 31.3931 183.044 31.5224 182.995 31.6429C182.946 31.7634 182.872 31.8724 182.779 31.963C182.582 32.1432 182.324 32.2431 182.057 32.2431C181.789 32.2431 181.532 32.1432 181.334 31.963C181.24 31.8725 181.167 31.7636 181.117 31.6431C181.068 31.5226 181.045 31.3931 181.048 31.263ZM190.948 25.963V22.898C190.957 22.589 190.921 22.2803 190.839 21.982C190.782 21.7763 190.665 21.5923 190.503 21.453C190.337 21.3237 190.14 21.24 189.931 21.21C189.667 21.168 189.399 21.1483 189.131 21.151H188.98V24.698C188.985 25.3433 188.871 25.9839 188.644 26.588C188.421 27.1744 188.064 27.7006 187.602 28.125C187.08 28.5921 186.467 28.9468 185.802 29.167C184.968 29.4414 184.093 29.5723 183.215 29.554C182.418 29.5747 181.625 29.4388 180.88 29.154C180.283 28.9208 179.738 28.5694 179.28 28.121C178.877 27.7185 178.565 27.2343 178.365 26.701C177.967 25.6501 177.973 24.4887 178.382 23.442C178.593 22.9207 178.861 22.4247 179.182 21.963L180.761 22.887C180.522 23.231 180.332 23.607 180.198 24.004C180.088 24.3262 180.028 24.6635 180.022 25.004C180.018 25.355 180.092 25.7025 180.24 26.021C180.39 26.3349 180.611 26.609 180.887 26.821C181.205 27.0607 181.564 27.2401 181.946 27.35C182.413 27.4852 182.897 27.5503 183.383 27.543C183.88 27.5472 184.376 27.4935 184.861 27.383C185.274 27.2909 185.668 27.1318 186.029 26.912C186.344 26.721 186.606 26.4555 186.794 26.139C186.976 25.8194 187.069 25.4568 187.063 25.089V19.273H189.398C189.868 19.1982 190.349 19.2354 190.802 19.3817C191.255 19.528 191.667 19.7793 192.005 20.115C192.342 20.4507 192.595 20.8613 192.744 21.3135C192.893 21.7657 192.932 22.2466 192.86 22.717V24.011H195.445C195.542 24.0241 195.641 24.0089 195.73 23.9672C195.818 23.9256 195.893 23.8591 195.945 23.776C196.038 23.5767 196.081 23.3577 196.071 23.138V19.273H197.986V22.465C197.97 22.8594 198.082 23.2484 198.305 23.574C198.449 23.7342 198.63 23.8575 198.832 23.9335C199.034 24.0095 199.251 24.0361 199.465 24.011H202.271V13.93H204.203V20.668C204.646 20.0531 205.229 19.552 205.903 19.206C206.526 18.8808 207.217 18.7094 207.919 18.706C208.487 18.6943 209.051 18.803 209.574 19.025C210.034 19.2267 210.444 19.5279 210.774 19.907C211.107 20.2971 211.356 20.752 211.505 21.243C211.672 21.7872 211.754 22.3538 211.749 22.923V25.964H199.415C198.992 25.9853 198.574 25.8607 198.231 25.611C197.956 25.4004 197.724 25.1378 197.55 24.838C197.354 25.1684 197.079 25.4453 196.75 25.644C196.383 25.8637 195.96 25.9744 195.532 25.963H190.948ZM162.468 12.756C162.273 12.7011 162.071 12.6729 161.868 12.672C161.715 12.6667 161.566 12.7176 161.448 12.815C161.39 12.8691 161.344 12.9357 161.315 13.0098C161.286 13.0839 161.274 13.1636 161.28 13.243C161.283 13.3328 161.305 13.421 161.344 13.5019C161.383 13.5828 161.439 13.6547 161.507 13.713C161.708 13.8755 161.964 13.954 162.221 13.932H162.742V14.822H159.902V13.932H160.658C160.565 13.8045 160.481 13.6709 160.406 13.532C160.326 13.3777 160.285 13.2059 160.288 13.032C160.288 12.8715 160.321 12.7126 160.384 12.5653C160.448 12.4179 160.541 12.2851 160.658 12.175C160.812 12.0418 160.991 11.9405 161.184 11.8772C161.377 11.8138 161.581 11.7896 161.784 11.806C161.927 11.8066 162.07 11.8176 162.212 11.839C162.351 11.8589 162.488 11.8869 162.624 11.923L162.468 12.756ZM167.912 25.963C167.505 25.9759 167.106 25.8516 166.778 25.61C166.491 25.3971 166.244 25.1355 166.047 24.837C165.869 25.2053 165.573 25.504 165.207 25.686C164.837 25.8709 164.428 25.9658 164.014 25.963H157.04V24.011H160.502V17.072H162.417V24.011H163.929C164.026 24.0243 164.125 24.0091 164.214 23.9674C164.303 23.9257 164.377 23.8592 164.429 23.776C164.516 23.575 164.557 23.3569 164.547 23.138V13.93H166.479V22.465C166.463 22.8582 166.572 23.2464 166.79 23.574C166.932 23.7346 167.111 23.8583 167.312 23.9344C167.512 24.0105 167.728 24.0368 167.941 24.011H170.411V13.93H172.311V25.96L167.912 25.963ZM152.202 24.115C152.421 24.1325 152.642 24.0974 152.845 24.0127C153.048 23.928 153.228 23.7961 153.37 23.628C153.626 23.2905 153.76 22.8756 153.748 22.452C153.752 22.1827 153.707 21.9149 153.614 21.662C153.533 21.4444 153.416 21.2416 153.269 21.062C153.136 20.8996 152.97 20.7676 152.782 20.675C152.602 20.5865 152.403 20.5406 152.202 20.541C151.995 20.5407 151.79 20.5864 151.602 20.675C151.409 20.7653 151.238 20.8975 151.102 21.062C150.956 21.2407 150.842 21.4438 150.766 21.662C150.679 21.9161 150.636 22.1834 150.64 22.452C150.631 22.8702 150.757 23.2801 151.001 23.62C151.145 23.795 151.33 23.9321 151.539 24.0193C151.748 24.1065 151.975 24.141 152.201 24.12M139.768 18.34C139.766 18.2113 139.791 18.0836 139.841 17.965C139.892 17.8464 139.966 17.7395 140.059 17.651C140.152 17.5582 140.263 17.485 140.384 17.4359C140.506 17.3867 140.637 17.3626 140.768 17.365C140.902 17.3617 141.035 17.3853 141.16 17.4345C141.284 17.4836 141.398 17.5572 141.493 17.651C141.585 17.7405 141.659 17.8476 141.709 17.9659C141.759 18.0843 141.785 18.2115 141.785 18.34C141.785 18.4685 141.759 18.5957 141.709 18.7141C141.659 18.8324 141.585 18.9395 141.493 19.029C141.397 19.1226 141.284 19.196 141.159 19.245C141.035 19.294 140.902 19.3174 140.768 19.314C140.637 19.3165 140.506 19.2925 140.385 19.2435C140.263 19.1946 140.152 19.1216 140.059 19.029C139.966 18.9405 139.892 18.8336 139.841 18.715C139.791 18.5964 139.766 18.4687 139.768 18.34ZM146.522 25.968C146.269 25.9754 146.017 25.9297 145.783 25.834C145.6 25.7552 145.432 25.6475 145.283 25.515C145.215 26.154 145.015 26.7718 144.695 27.329C144.41 27.8142 144.03 28.2372 143.578 28.573C143.133 28.8992 142.631 29.1412 142.099 29.287C141.56 29.4377 141.003 29.5141 140.444 29.514C139.663 29.5389 138.886 29.4045 138.159 29.119C137.604 28.8908 137.107 28.5405 136.705 28.094C136.347 27.6859 136.083 27.2042 135.932 26.683C135.784 26.184 135.708 25.6665 135.705 25.146C135.71 24.5793 135.807 24.0172 135.993 23.482C136.172 22.9363 136.443 22.425 136.793 21.97L138.415 22.894C138.172 23.2437 137.985 23.6289 137.86 24.036C137.751 24.3957 137.695 24.7692 137.692 25.145C137.694 25.4276 137.739 25.7081 137.826 25.977C137.919 26.2681 138.076 26.5348 138.285 26.758C138.531 27.0113 138.828 27.2091 139.156 27.338C139.598 27.5027 140.068 27.5798 140.539 27.565C140.963 27.5732 141.384 27.4988 141.779 27.346C142.113 27.2159 142.419 27.0219 142.679 26.775C142.916 26.5437 143.099 26.2626 143.214 25.952C143.331 25.6403 143.391 25.31 143.39 24.977C143.378 24.4396 143.285 23.9071 143.112 23.398C142.938 22.8357 142.692 22.298 142.381 21.798L144.181 20.773C144.393 21.1819 144.581 21.6026 144.744 22.033C144.895 22.433 145.01 22.7803 145.089 23.075C145.147 23.3655 145.304 23.6267 145.534 23.814C145.842 23.9733 146.189 24.0426 146.534 24.014H147.727C148.421 24.014 148.768 23.4893 148.768 22.44C148.763 21.931 148.851 21.4254 149.028 20.948C149.19 20.5099 149.439 20.1089 149.759 19.769C150.07 19.4404 150.444 19.1784 150.859 18.999C151.297 18.8106 151.769 18.7162 152.245 18.722C152.75 18.7108 153.252 18.808 153.716 19.007C154.12 19.1844 154.476 19.4539 154.757 19.794C155.043 20.1498 155.252 20.5607 155.371 21.001C155.509 21.5035 155.577 22.0229 155.571 22.544C155.572 22.9748 155.512 23.4035 155.395 23.818C155.283 24.2217 155.085 24.5967 154.816 24.918C154.533 25.2465 154.18 25.507 153.783 25.68C153.297 25.8835 152.772 25.981 152.245 25.966C151.998 25.9658 151.751 25.9518 151.506 25.924C151.257 25.8954 151.012 25.839 150.775 25.756C150.53 25.6701 150.299 25.5514 150.086 25.403C149.857 25.2426 149.654 25.0469 149.486 24.823C149.349 25.1775 149.104 25.4802 148.786 25.689C148.503 25.8698 148.173 25.9659 147.837 25.966L146.522 25.968ZM128.359 13.938H130.259V25.968H128.359V13.938ZM102.751 28.069C102.748 27.9411 102.772 27.8141 102.821 27.696C102.87 27.5778 102.943 27.4713 103.036 27.383C103.234 27.2028 103.491 27.1029 103.759 27.1029C104.026 27.1029 104.284 27.2028 104.481 27.383C104.574 27.4712 104.647 27.5777 104.696 27.6958C104.746 27.814 104.77 27.9411 104.767 28.069C104.77 28.1991 104.747 28.3285 104.698 28.449C104.648 28.5695 104.575 28.6785 104.481 28.769C104.284 28.9492 104.026 29.0491 103.759 29.0491C103.491 29.0491 103.234 28.9492 103.036 28.769C102.943 28.6784 102.869 28.5694 102.82 28.4489C102.771 28.3284 102.747 28.1991 102.751 28.069ZM100.151 28.069C100.148 27.9411 100.172 27.814 100.222 27.6958C100.271 27.5777 100.344 27.4712 100.437 27.383C100.635 27.2028 100.892 27.1029 101.16 27.1029C101.427 27.1029 101.685 27.2028 101.882 27.383C101.975 27.4713 102.048 27.5778 102.097 27.696C102.146 27.8141 102.17 27.9411 102.167 28.069C102.171 28.1991 102.147 28.3284 102.098 28.4489C102.049 28.5694 101.975 28.6784 101.882 28.769C101.685 28.9492 101.427 29.0491 101.16 29.0491C100.892 29.0491 100.635 28.9492 100.437 28.769C100.344 28.6785 100.27 28.5695 100.221 28.449C100.171 28.3285 100.148 28.1991 100.151 28.069ZM95.1781 28.069C95.1757 27.9406 95.2004 27.8132 95.2506 27.695C95.3007 27.5769 95.3751 27.4705 95.4691 27.383C95.5653 27.2906 95.679 27.2183 95.8035 27.1702C95.9279 27.1222 96.0607 27.0993 96.1941 27.103C96.3249 27.1003 96.455 27.1236 96.5767 27.1717C96.6984 27.2198 96.8094 27.2916 96.9031 27.383C96.997 27.4705 97.0714 27.5769 97.1216 27.695C97.1717 27.8132 97.1964 27.9406 97.1941 28.069C97.1972 28.1995 97.1729 28.3293 97.1228 28.4499C97.0726 28.5704 96.9978 28.6791 96.9031 28.769C96.8094 28.8604 96.6984 28.9322 96.5767 28.9803C96.455 29.0284 96.3249 29.0517 96.1941 29.049C96.0607 29.0527 95.9279 29.0298 95.8035 28.9818C95.679 28.9337 95.5653 28.8614 95.4691 28.769C95.3743 28.6791 95.2995 28.5704 95.2493 28.4499C95.1992 28.3293 95.1749 28.1995 95.1781 28.069ZM121.138 25.961C120.712 25.9835 120.29 25.8654 119.938 25.625C119.658 25.4199 119.425 25.1561 119.257 24.852C119.066 25.2106 118.766 25.499 118.4 25.675C118.003 25.8693 117.565 25.9673 117.123 25.961H116.669C116.247 25.9857 115.83 25.8673 115.484 25.625C115.217 25.4224 114.996 25.1646 114.837 24.869C114.637 25.2264 114.332 25.5136 113.963 25.692C113.597 25.8706 113.194 25.9626 112.787 25.961H112.345C111.929 25.9807 111.519 25.8626 111.177 25.625C110.902 25.4258 110.676 25.1675 110.514 24.869C110.309 25.2316 109.994 25.5198 109.614 25.692C109.211 25.875 108.772 25.9668 108.329 25.961H104.851C104.427 25.9824 104.009 25.8578 103.666 25.608C103.391 25.3973 103.159 25.1347 102.985 24.835C102.789 25.1654 102.514 25.4423 102.185 25.641C101.818 25.8608 101.395 25.9714 100.967 25.96H98.7351C98.3116 25.9813 97.8937 25.8567 97.5511 25.607C97.2756 25.3965 97.0442 25.1338 96.8701 24.834C96.6738 25.1644 96.399 25.4413 96.0701 25.64C95.7026 25.8598 95.2801 25.9704 94.8521 25.959H92.7181C92.4074 25.9627 92.1009 25.8877 91.8271 25.741C91.5812 25.6138 91.3595 25.4446 91.1721 25.241V25.695C91.1764 26.1727 91.1089 26.6483 90.9721 27.106C90.8496 27.5229 90.6456 27.9114 90.3721 28.249C90.1027 28.5743 89.7642 28.8353 89.3811 29.013C88.9537 29.2056 88.4887 29.3005 88.0201 29.291C87.8201 29.291 87.6271 29.2827 87.4411 29.266C87.2551 29.2493 87.0954 29.2297 86.9621 29.207C86.8727 29.1957 86.7917 29.1843 86.7191 29.173C86.6477 29.1622 86.5774 29.1451 86.5091 29.122L86.7091 27.207L87.1791 27.307C87.3124 27.329 87.4551 27.3487 87.6071 27.366C87.7438 27.3819 87.8814 27.3902 88.0191 27.391C88.2119 27.4152 88.4076 27.3838 88.5831 27.3005C88.7587 27.2173 88.9068 27.0856 89.0101 26.921C89.202 26.4881 89.2884 26.0158 89.2621 25.543V19.273H91.1771V22.465C91.1613 22.8582 91.2701 23.2463 91.4881 23.574C91.6358 23.7366 91.8205 23.8613 92.0266 23.9373C92.2327 24.0134 92.4541 24.0387 92.6721 24.011H94.7721C94.8692 24.024 94.968 24.0087 95.0566 23.9671C95.1453 23.9254 95.2201 23.8591 95.2721 23.776C95.365 23.5766 95.4082 23.3577 95.3981 23.138V19.273H97.3131V22.465C97.297 22.8594 97.4089 23.2484 97.6321 23.574C97.7762 23.7342 97.9567 23.8575 98.1584 23.9335C98.3601 24.0095 98.577 24.0361 98.7911 24.011H100.891C100.988 24.0241 101.087 24.0089 101.176 23.9672C101.264 23.9256 101.339 23.8591 101.391 23.776C101.484 23.5767 101.527 23.3577 101.517 23.138V19.273H103.432V22.465C103.416 22.8594 103.528 23.2484 103.751 23.574C103.895 23.7342 104.076 23.8575 104.278 23.9335C104.48 24.0095 104.697 24.0361 104.911 24.011H108.345C108.442 24.0238 108.54 24.0122 108.631 23.9773C108.722 23.9423 108.803 23.8852 108.866 23.811C108.969 23.6206 109.015 23.4049 109 23.189V20.836H110.882V22.466C110.871 22.8545 110.983 23.2365 111.201 23.558C111.345 23.7239 111.528 23.852 111.733 23.9312C111.938 24.0103 112.159 24.0381 112.377 24.012H112.677C112.774 24.0254 112.873 24.0103 112.962 23.9686C113.051 23.9269 113.125 23.8603 113.177 23.777C113.264 23.576 113.305 23.3579 113.295 23.139V20.18H115.227V22.465C115.211 22.8594 115.323 23.2484 115.546 23.574C115.69 23.7343 115.871 23.8576 116.073 23.9336C116.275 24.0097 116.492 24.0362 116.706 24.011H117.106C117.207 24.0256 117.311 24.0113 117.404 23.9697C117.498 23.9281 117.578 23.861 117.635 23.776C117.728 23.5766 117.771 23.3577 117.761 23.138V19.273H119.661V22.465C119.645 22.8582 119.754 23.2463 119.972 23.574C120.114 23.7346 120.293 23.8583 120.494 23.9344C120.694 24.0105 120.91 24.0368 121.123 24.011H123.694V13.93H125.594V25.96L121.138 25.961ZM83.6021 13.931H85.5021V25.961H83.6021V13.931ZM79.1451 16.652C79.1434 16.5233 79.1684 16.3956 79.2185 16.2771C79.2686 16.1585 79.3427 16.0516 79.4361 15.963C79.529 15.8702 79.6396 15.797 79.7615 15.7479C79.8833 15.6987 80.0137 15.6746 80.1451 15.677C80.2789 15.6737 80.412 15.6973 80.5366 15.7465C80.6611 15.7956 80.7745 15.8692 80.8701 15.963C80.9623 16.0525 81.0356 16.1596 81.0857 16.2779C81.1358 16.3963 81.1616 16.5235 81.1616 16.652C81.1616 16.7805 81.1358 16.9077 81.0857 17.0261C81.0356 17.1444 80.9623 17.2515 80.8701 17.341C80.7745 17.4348 80.6611 17.5084 80.5366 17.5575C80.412 17.6067 80.2789 17.6303 80.1451 17.627C80.0137 17.6293 79.8833 17.6052 79.7615 17.5561C79.6397 17.5069 79.529 17.4338 79.4361 17.341C79.3427 17.2524 79.2686 17.1455 79.2185 17.0269C79.1684 16.9084 79.1434 16.7807 79.1451 16.652ZM66.6941 31.262C66.6913 31.134 66.7154 31.0069 66.7646 30.8888C66.8139 30.7707 66.8872 30.6641 66.9801 30.576C67.1774 30.3956 67.4352 30.2956 67.7026 30.2956C67.97 30.2956 68.2277 30.3956 68.4251 30.576C68.5179 30.6641 68.5913 30.7707 68.6405 30.8888C68.6898 31.0069 68.7138 31.134 68.7111 31.262C68.7145 31.3921 68.6909 31.5216 68.6416 31.6421C68.5924 31.7626 68.5187 31.8715 68.4251 31.962C68.2276 32.1422 67.9699 32.2421 67.7026 32.2421C67.4352 32.2421 67.1775 32.1422 66.9801 31.962C66.8865 31.8715 66.8127 31.7626 66.7635 31.6421C66.7143 31.5216 66.6906 31.3921 66.6941 31.262ZM64.0941 31.262C64.0913 31.134 64.1153 31.0069 64.1645 30.8888C64.2138 30.7706 64.2872 30.6641 64.3801 30.576C64.5774 30.3956 64.8352 30.2956 65.1026 30.2956C65.37 30.2956 65.6277 30.3956 65.8251 30.576C65.918 30.6641 65.9914 30.7706 66.0407 30.8887C66.0899 31.0069 66.1139 31.134 66.1111 31.262C66.1146 31.3921 66.091 31.5216 66.0417 31.6421C65.9925 31.7626 65.9187 31.8716 65.8251 31.962C65.6276 32.1422 65.3699 32.2421 65.1026 32.2421C64.8352 32.2421 64.5776 32.1422 64.3801 31.962C64.2864 31.8716 64.2126 31.7626 64.1634 31.6421C64.1142 31.5216 64.0905 31.3921 64.0941 31.262ZM262.356 24.098C262.577 24.1164 262.799 24.0829 263.005 24.0003C263.211 23.9176 263.394 23.7881 263.541 23.622C263.799 23.2844 263.933 22.8679 263.919 22.443C263.923 22.1747 263.878 21.9079 263.785 21.656C263.704 21.4383 263.587 21.2355 263.44 21.056C263.304 20.8924 263.133 20.7612 262.94 20.672C262.757 20.584 262.556 20.5382 262.352 20.538C262.145 20.5377 261.94 20.5834 261.752 20.672C261.559 20.7612 261.388 20.8924 261.252 21.056C261.105 21.2346 260.992 21.4377 260.916 21.656C260.829 21.9091 260.786 22.1754 260.79 22.443C260.776 22.8679 260.91 23.2844 261.168 23.622C261.315 23.788 261.498 23.9174 261.704 24.0001C261.909 24.0827 262.131 24.1162 262.352 24.098M73.9861 25.96V22.898C73.9955 22.5889 73.9587 22.2802 73.8771 21.982C73.8197 21.7764 73.7028 21.5923 73.5411 21.453C73.3751 21.3238 73.1783 21.24 72.9701 21.21C72.7055 21.168 72.4379 21.1483 72.1701 21.151H72.0191V24.698C72.0238 25.3433 71.9099 25.9839 71.6831 26.588C71.4618 27.1752 71.1063 27.7026 70.6451 28.128C70.123 28.5953 69.5103 28.95 68.8451 29.17C68.0105 29.4444 67.1354 29.5753 66.2571 29.557C65.4601 29.5775 64.6668 29.4416 63.9221 29.157C63.3247 28.9238 62.7805 28.5724 62.3221 28.124C61.9188 27.7215 61.6065 27.2373 61.4061 26.704C61.0083 25.653 61.0143 24.4918 61.4231 23.445C61.634 22.9238 61.9023 22.4278 62.2231 21.966L63.8031 22.89C63.5661 23.2314 63.3783 23.6044 63.2451 23.998C63.1347 24.3202 63.0754 24.6575 63.0691 24.998C63.0649 25.349 63.1393 25.6965 63.2871 26.015C63.4368 26.3289 63.6584 26.603 63.9341 26.815C64.2516 27.0548 64.6106 27.2341 64.9931 27.344C65.4595 27.4791 65.9435 27.5442 66.4291 27.537C66.9266 27.5412 67.4229 27.4875 67.9081 27.377C68.3205 27.2849 68.7151 27.1258 69.0761 26.906C69.3903 26.7149 69.6526 26.4494 69.8401 26.133C70.0223 25.8135 70.1152 25.4508 70.1091 25.083V19.273H72.4441C72.914 19.1983 73.395 19.2357 73.8478 19.3821C74.3006 19.5285 74.7125 19.7798 75.0498 20.1154C75.3871 20.4511 75.6404 20.8617 75.789 21.3138C75.9377 21.7659 75.9774 22.2467 75.9051 22.717V24.011H79.1651V19.273H81.0801V25.96H73.9861Z" fill="white"/>
<path fill-rule="evenodd" clip-rule="evenodd" d="M41.5751 5.284C41.7089 5.24757 41.826 5.16586 41.9064 5.0528C41.9869 4.93974 42.0256 4.80231 42.0161 4.66389C42.0066 4.52548 41.9494 4.39464 41.8542 4.29365C41.7591 4.19266 41.6319 4.12776 41.4943 4.11C41.3567 4.09223 41.2172 4.1227 41.0996 4.19622C40.9819 4.26974 40.8933 4.38176 40.849 4.51322C40.8046 4.64467 40.8072 4.78744 40.8563 4.91722C40.9053 5.047 40.9978 5.15576 41.1181 5.225C41.1866 5.26447 41.2622 5.29 41.3407 5.30012C41.4191 5.31025 41.4988 5.30477 41.5751 5.284ZM39.6881 14.6C39.7646 14.5796 39.8363 14.5443 39.8991 14.4961C39.962 14.4479 40.0146 14.3877 40.0541 14.319C40.0937 14.2505 40.1195 14.1749 40.1298 14.0964C40.1401 14.0179 40.1348 13.9382 40.1141 13.8618C40.0935 13.7854 40.0579 13.7138 40.0095 13.6512C39.9611 13.5886 39.9008 13.5362 39.8321 13.497C39.7289 13.4367 39.6101 13.4085 39.4909 13.4161C39.3716 13.4236 39.2574 13.4667 39.1627 13.5396C39.0681 13.6126 38.9974 13.7121 38.9597 13.8255C38.922 13.9388 38.919 14.0609 38.9511 14.176C38.9711 14.2523 39.0059 14.3239 39.0536 14.3867C39.1013 14.4495 39.1609 14.5023 39.2291 14.542C39.2976 14.5815 39.3732 14.607 39.4517 14.6171C39.5301 14.6272 39.6098 14.6218 39.6861 14.601M39.1011 28.401C39.2161 28.3707 39.3195 28.307 39.3982 28.2178C39.4769 28.1286 39.5273 28.0181 39.543 27.9002C39.5588 27.7824 39.5392 27.6625 39.4866 27.5558C39.4341 27.4491 39.3511 27.3604 39.2481 27.301C39.1795 27.2612 39.1038 27.2353 39.0252 27.2249C38.9467 27.2145 38.8668 27.2198 38.7903 27.2404C38.7138 27.2611 38.6421 27.2967 38.5794 27.3452C38.5167 27.3937 38.4643 27.4541 38.4251 27.523C38.3854 27.5915 38.3597 27.6671 38.3493 27.7456C38.339 27.8241 38.3443 27.9038 38.365 27.9802C38.3856 28.0566 38.4212 28.1282 38.4696 28.1908C38.518 28.2534 38.5783 28.3058 38.6471 28.345C38.7154 28.3845 38.7908 28.4101 38.8691 28.4204C38.9473 28.4307 39.0268 28.4255 39.1031 28.405M10.8571 2.643C16.4512 0.816814 22.3078 -0.0761215 28.1921 8.10251e-07C32.5585 3.16609 35.9808 7.46093 38.0921 12.424C37.8413 12.6511 37.6478 12.9342 37.5273 13.2503C37.4068 13.5664 37.3628 13.9065 37.3988 14.2429C37.4347 14.5793 37.5497 14.9023 37.7343 15.1858C37.9189 15.4693 38.168 15.7051 38.4611 15.874C38.7052 16.0155 38.9749 16.1074 39.2547 16.1445C39.5344 16.1816 39.8188 16.1632 40.0914 16.0903C40.364 16.0174 40.6196 15.8914 40.8434 15.7196C41.0673 15.5478 41.2551 15.3335 41.3961 15.089C41.5372 14.8448 41.6289 14.5752 41.6659 14.2956C41.7029 14.016 41.6844 13.7318 41.6115 13.4594C41.5386 13.1869 41.4127 12.9315 41.241 12.7076C41.0694 12.4838 40.8553 12.296 40.6111 12.155C40.2842 11.9654 39.9129 11.8657 39.5351 11.866C37.6032 7.31085 34.6189 3.27859 30.8271 0.100001C36.4442 0.449054 41.9713 1.68082 47.2051 3.75C47.8768 6.9558 47.9621 10.2568 47.4571 13.493L44.1931 10.3C44.0364 9.54 43.8421 8.788 43.6101 8.044C43.4174 7.424 43.1981 6.81067 42.9521 6.204C43.303 5.84619 43.5177 5.37688 43.559 4.87739C43.6002 4.3779 43.4654 3.87972 43.178 3.46917C42.8905 3.05862 42.4685 2.76158 41.985 2.62951C41.5015 2.49745 40.9871 2.53868 40.5308 2.74607C40.0746 2.95347 39.7052 3.31395 39.4868 3.76505C39.2684 4.21615 39.2147 4.72944 39.335 5.21597C39.4553 5.70251 39.742 6.13163 40.1455 6.42897C40.549 6.72631 41.0437 6.87313 41.5441 6.844C41.7614 7.38533 41.9581 7.93833 42.1341 8.503C42.3714 9.26823 42.5673 10.0457 42.7211 10.832L42.9391 11.232L47.0841 15.288C46.9627 15.7733 46.8251 16.2533 46.6711 16.728C45.4988 20.4232 43.2236 23.671 40.1511 26.035C40.1091 26.007 40.0651 25.979 40.0211 25.954C39.7769 25.8125 39.5072 25.7206 39.2274 25.6835C38.9477 25.6464 38.6634 25.6648 38.3907 25.7377C38.1181 25.8106 37.8625 25.9366 37.6387 26.1084C37.4148 26.2802 37.227 26.4945 37.0861 26.739C36.9449 26.9832 36.8532 27.2528 36.8162 27.5324C36.7793 27.812 36.7978 28.0962 36.8707 28.3686C36.9436 28.6411 37.0694 28.8966 37.2411 29.1204C37.4127 29.3442 37.6268 29.532 37.8711 29.673C38.2355 29.8832 38.6535 29.9818 39.0735 29.9566C39.4934 29.9315 39.8967 29.7836 40.2334 29.5314C40.57 29.2791 40.8253 28.9336 40.9674 28.5377C41.1096 28.1417 41.1324 27.7128 41.0331 27.304C44.3843 24.7481 46.8663 21.2213 48.1411 17.204C49.416 13.0771 49.6791 8.70398 48.9081 4.454C50.9727 5.35393 52.9787 6.38297 54.9141 7.535C55.2161 30.521 37.2481 33.7 30.3731 31.3C41.0071 29.079 36.8541 -2 10.8571 2.643Z" fill="white"/>
<path fill-rule="evenodd" clip-rule="evenodd" d="M36.1171 44.621C36.0817 44.7552 36.094 44.8975 36.1517 45.0237C36.2095 45.1498 36.3092 45.2521 36.4338 45.313C36.5585 45.3739 36.7005 45.3898 36.8355 45.3578C36.9705 45.3258 37.0903 45.248 37.1744 45.1377C37.2586 45.0273 37.3018 44.8912 37.2969 44.7525C37.2919 44.6138 37.2391 44.4812 37.1473 44.3771C37.0555 44.273 36.9305 44.204 36.7935 44.1817C36.6566 44.1594 36.5161 44.1853 36.3961 44.255C36.3278 44.2946 36.268 44.3474 36.2201 44.4102C36.1722 44.473 36.1372 44.5446 36.1171 44.621ZM28.9911 38.327C28.9705 38.4034 28.9652 38.4831 28.9755 38.5615C28.9858 38.6399 29.0115 38.7155 29.0511 38.784C29.0905 38.8525 29.1431 38.9125 29.2059 38.9606C29.2686 39.0088 29.3402 39.044 29.4166 39.0644C29.493 39.0847 29.5726 39.0898 29.651 39.0792C29.7293 39.0687 29.8048 39.0428 29.8731 39.003C29.9761 38.9436 30.0591 38.8549 30.1117 38.7482C30.1642 38.6415 30.1838 38.5216 30.1681 38.4038C30.1523 38.2859 30.1019 38.1754 30.0232 38.0862C29.9445 37.997 29.8411 37.9333 29.7261 37.903C29.65 37.8822 29.5706 37.8766 29.4923 37.8866C29.4141 37.8966 29.3386 37.9218 29.2701 37.961C29.2019 38.0005 29.1421 38.0531 29.0943 38.1157C29.0464 38.1784 29.0113 38.2508 28.9911 38.327ZM17.3341 30.921C17.3018 31.0362 17.3047 31.1585 17.3425 31.272C17.3802 31.3856 17.451 31.4853 17.5458 31.5583C17.6407 31.6313 17.7551 31.6743 17.8746 31.6817C17.994 31.6891 18.1129 31.6607 18.2161 31.6C18.3544 31.5204 18.4554 31.3892 18.497 31.2351C18.5385 31.0811 18.5172 30.9168 18.4376 30.7785C18.358 30.6402 18.2268 30.5392 18.0727 30.4976C17.9187 30.4561 17.7544 30.4774 17.6161 30.557C17.4781 30.6373 17.3775 30.7688 17.3361 30.923M53.7631 19.338C52.5462 25.0953 50.39 30.613 47.3811 35.67C42.4562 37.8674 37.0261 38.6829 31.6731 38.029C31.6019 37.6982 31.4535 37.3888 31.24 37.1263C31.0265 36.8637 30.7539 36.6554 30.4445 36.5183C30.1351 36.3812 29.7976 36.3192 29.4597 36.3374C29.1218 36.3556 28.793 36.4535 28.5001 36.623C28.2555 36.7638 28.041 36.9515 27.8689 37.1752C27.6969 37.399 27.5707 37.6545 27.4975 37.9271C27.4243 38.1997 27.4056 38.4841 27.4424 38.7639C27.4792 39.0438 27.5709 39.3136 27.7121 39.558C27.8529 39.8024 28.0404 40.0166 28.2641 40.1885C28.4877 40.3603 28.7431 40.4864 29.0155 40.5595C29.2879 40.6326 29.572 40.6512 29.8516 40.6144C30.1312 40.5776 30.4009 40.4861 30.6451 40.345C30.9729 40.1569 31.2451 39.8854 31.4341 39.558C36.3442 40.1649 41.3282 39.5988 45.9771 37.906C42.8666 42.5964 39.0363 46.7673 34.6271 50.265C31.5144 49.2422 28.6128 47.6637 26.0631 45.606L30.4631 44.376C31.2001 44.62 31.9501 44.828 32.7081 44.999C33.3421 45.1423 33.9828 45.259 34.6301 45.349C34.7647 45.8312 35.0638 46.2512 35.4755 46.5361C35.8872 46.821 36.3856 46.953 36.8843 46.909C37.383 46.8651 37.8507 46.6481 38.2063 46.2956C38.5618 45.9431 38.7829 45.4774 38.8311 44.979C38.8794 44.4807 38.7518 43.9812 38.4704 43.567C38.1891 43.1528 37.7718 42.8502 37.2907 42.7114C36.8096 42.5726 36.2952 42.6065 35.8365 42.8071C35.3778 43.0078 35.0037 43.3625 34.7791 43.81C34.2018 43.7267 33.6244 43.6203 33.0471 43.491C32.2655 43.3147 31.494 43.096 30.7361 42.836L30.2781 42.823L24.6931 44.386C24.3324 44.038 23.9854 43.6787 23.6521 43.308C21.038 40.4453 19.3629 36.8509 18.8521 33.008C18.8981 32.986 18.9431 32.962 18.9881 32.936C19.2328 32.7953 19.4474 32.6077 19.6195 32.3839C19.7916 32.1602 19.9179 31.9046 19.9911 31.632C20.0643 31.3594 20.083 31.075 20.0461 30.7951C20.0092 30.5152 19.9174 30.2454 19.7761 30.001C19.6352 29.7566 19.4475 29.5423 19.2238 29.3705C19.0001 29.1986 18.7447 29.0725 18.4722 28.9995C18.1997 28.9264 17.9155 28.9077 17.6358 28.9445C17.3561 28.9813 17.0864 29.0729 16.8421 29.214C16.4778 29.4244 16.1833 29.7371 15.9951 30.1134C15.8068 30.4896 15.7332 30.9128 15.7832 31.3305C15.8333 31.7482 16.0048 32.1421 16.2766 32.4632C16.5484 32.7843 16.9084 33.0186 17.3121 33.137C17.851 37.3149 19.6635 41.2254 22.5031 44.337C25.4395 47.5045 29.0951 49.9188 33.1611 51.376C31.3495 52.7142 29.4554 53.9369 27.4901 55.037C7.44009 43.809 13.6681 26.661 19.1901 21.906C15.7901 32.225 44.7851 44.166 53.7631 19.331" fill="white"/>
<path fill-rule="evenodd" clip-rule="evenodd" d="M4.77908 20.225C4.68068 20.1272 4.5514 20.0665 4.41328 20.0533C4.27515 20.04 4.13671 20.0751 4.02152 20.1525C3.90634 20.2298 3.82153 20.3447 3.78154 20.4776C3.74155 20.6105 3.74885 20.7531 3.8022 20.8812C3.85555 21.0093 3.95164 21.1149 4.07413 21.1802C4.19661 21.2454 4.33791 21.2661 4.47396 21.2388C4.61002 21.2116 4.73242 21.138 4.82032 21.0306C4.90823 20.9233 4.95621 20.7888 4.95608 20.65C4.95602 20.571 4.94034 20.4928 4.90997 20.4199C4.8796 20.3469 4.83512 20.2807 4.77908 20.225ZM13.7931 17.198C13.7373 17.1419 13.6709 17.0973 13.5978 17.0669C13.5247 17.0365 13.4463 17.0209 13.3671 17.021C13.208 17.021 13.0553 17.0842 12.9428 17.1967C12.8303 17.3093 12.7671 17.4619 12.7671 17.621C12.7671 17.7811 12.8307 17.9346 12.9438 18.0477C13.057 18.1609 13.2105 18.2245 13.3706 18.2245C13.5306 18.2245 13.6841 18.1609 13.7973 18.0477C13.9105 17.9346 13.9741 17.7811 13.9741 17.621C13.974 17.542 13.9583 17.4638 13.928 17.3909C13.8976 17.3179 13.8531 17.2517 13.7971 17.196M13.9971 6.986C16.3971 7.562 20.0221 7.972 21.3671 9.828C17.6821 8.698 14.6951 11.842 13.9971 6.986ZM17.8511 48.148C13.4739 44.2155 9.77377 39.5893 6.89908 34.455C7.45846 29.0913 9.46727 23.9809 12.7101 19.672C13.0319 19.775 13.3736 19.8005 13.7072 19.7465C14.0408 19.6925 14.3569 19.5604 14.6298 19.3611C14.9027 19.1618 15.1247 18.9008 15.2776 18.5995C15.4306 18.2981 15.5103 17.9649 15.5101 17.627C15.5105 17.3449 15.4552 17.0654 15.3475 16.8046C15.2398 16.5438 15.0817 16.3069 14.8822 16.1073C14.6828 15.9077 14.446 15.7493 14.1853 15.6414C13.9246 15.5334 13.6452 15.4779 13.3631 15.478C13.081 15.4777 12.8016 15.5331 12.5408 15.6409C12.2801 15.7486 12.0432 15.9067 11.8436 16.1061C11.6441 16.3055 11.4857 16.5423 11.3777 16.8029C11.2697 17.0635 11.2141 17.3429 11.2141 17.625C11.2154 18.0022 11.3165 18.3724 11.5071 18.698C8.52654 22.6473 6.52511 27.2472 5.66708 32.12C3.16121 27.0817 1.46442 21.6802 0.639085 16.114C3.07959 13.9295 5.89576 12.2053 8.95109 11.025L7.81808 15.448C7.23808 15.964 6.68375 16.5083 6.15508 17.081C5.71442 17.5583 5.29308 18.055 4.89108 18.571C4.40556 18.4456 3.89148 18.4941 3.43793 18.708C2.98438 18.9219 2.61996 19.2877 2.40781 19.742C2.19565 20.1964 2.14915 20.7106 2.27636 21.1957C2.40356 21.6807 2.69646 22.106 3.10428 22.3978C3.51211 22.6895 4.00916 22.8294 4.50929 22.7932C5.00943 22.757 5.48113 22.5469 5.84264 22.1994C6.20416 21.8519 6.4327 21.3889 6.48867 20.8905C6.54464 20.3922 6.42451 19.89 6.14908 19.471C6.50975 19.0123 6.89042 18.5653 7.29108 18.13C7.83496 17.5418 8.41013 16.9833 9.01408 16.457L9.25408 16.067L10.6941 10.45C11.1754 10.3127 11.6601 10.192 12.1481 10.088C12.9598 9.91537 13.7813 9.7928 14.6081 9.721C14.1967 9.3188 13.9037 8.81134 13.7611 8.254C13.1118 8.332 12.4671 8.439 11.8271 8.575C7.61499 9.53357 3.69557 11.4921 0.400085 14.285C0.145724 12.047 0.0325 9.79522 0.0610848 7.543C8.76709 2.363 16.9001 1.813 25.4991 8.111C27.779 8.93892 29.7409 10.4628 31.1071 12.467C31.2071 12.641 31.3071 12.816 31.4071 12.989C31.7956 13.7323 32.0709 14.5294 32.2241 15.354V15.373L32.2441 15.484V15.495L32.2521 15.54L32.2781 15.707V15.73V15.764V15.778L32.2841 15.821L32.2901 15.873L32.2961 15.916V15.929V15.964V15.987C32.3051 16.06 32.3121 16.133 32.3201 16.206V16.216C32.3905 16.9973 32.3808 17.7837 32.2911 18.563C32.0911 17.034 29.3111 14.772 25.4911 15.418C16.1651 18.018 4.86508 32.77 17.8211 48.142" fill="white"/>
</g>
</svg>
