<svg xmlns="http://www.w3.org/2000/svg" width="18.416" height="17.881" viewBox="0 0 18.416 17.881">
  <path id="Path_160" data-name="Path 160" d="M3342.194,99.362a.5.5,0,0,0-.416-.371,1.065,1.065,0,0,0-.2-.008,2.5,2.5,0,0,1-1.671-.687,4.437,4.437,0,0,1-1.762-2.409c.046-.288.444-.457.956-.645l.22-.083c.618-.242.972-.56,1.054-.943a.846.846,0,0,0-.262-.788,1.367,1.367,0,0,0-1.758-.108.7.7,0,0,1-.3.072v-2.3a4.962,4.962,0,0,0-4.957-4.956h-.17a4.962,4.962,0,0,0-4.957,4.956v2.3a.7.7,0,0,1-.3-.072,1.367,1.367,0,0,0-1.758.109.847.847,0,0,0-.262.788c.082.384.437.7,1.054.943.071.028.144.055.22.083.511.189.909.358.956.646a4.443,4.443,0,0,1-1.761,2.409,2.5,2.5,0,0,1-1.672.687,1.052,1.052,0,0,0-.195.008.5.5,0,0,0-.417.372c-.067.271-.176,1.184,1.264,1.552.342.087.606.132.8.164a1.754,1.754,0,0,1,.345.076.444.444,0,0,1,.07.14,3.453,3.453,0,0,1,.128.423,1.227,1.227,0,0,0,.146.394.63.63,0,0,0,.557.287,3.814,3.814,0,0,0,.436-.046,5.263,5.263,0,0,1,1.959-.021,4.146,4.146,0,0,1,.622.422,5.091,5.091,0,0,0,2.825,1.261h.044a5.091,5.091,0,0,0,2.825-1.261,4.173,4.173,0,0,1,.623-.422,5.262,5.262,0,0,1,1.958.021,3.819,3.819,0,0,0,.436.046.629.629,0,0,0,.556-.287,1.24,1.24,0,0,0,.147-.394,3.292,3.292,0,0,1,.128-.423.47.47,0,0,1,.069-.139,1.723,1.723,0,0,1,.346-.077c.193-.033.458-.077.8-.164,1.44-.368,1.332-1.281,1.264-1.552" transform="translate(-3323.813 -86.134)" fill="#fff"/>
</svg>
