<svg xmlns="http://www.w3.org/2000/svg" width="18.697" height="18.688" viewBox="0 0 18.697 18.688">
  <path id="Path_156" data-name="Path 156" d="M95.6,88.868a4.959,4.959,0,0,0-1.512-3.191,5.182,5.182,0,0,0-3.428-1.392,67.415,67.415,0,0,0-9.247.1,4.718,4.718,0,0,0-4.044,3.631c-.445,1.591-.356,8.922-.1,10.495a4.732,4.732,0,0,0,3.757,4.077,55.424,55.424,0,0,0,10.349.067,4.74,4.74,0,0,0,4.095-3.739c.427-1.633.277-8.581.127-10.054m-1.72,9.342a3.165,3.165,0,0,1-2.976,2.824c-1.508.166-8.243.257-9.641-.134a3.066,3.066,0,0,1-2.326-2.641,62.591,62.591,0,0,1,0-9.435A3.16,3.16,0,0,1,81.9,86.013a65.886,65.886,0,0,1,9.2.036,3.165,3.165,0,0,1,2.819,2.98,67.094,67.094,0,0,1-.037,9.18m-7.475-9.478a4.794,4.794,0,1,0,4.792,4.8,4.794,4.794,0,0,0-4.792-4.8m-.032,7.891A3.1,3.1,0,1,1,89.5,93.551a3.1,3.1,0,0,1-3.127,3.072m6.135-8.073a1.122,1.122,0,1,1-1.12-1.125,1.122,1.122,0,0,1,1.12,1.125" transform="translate(-77.057 -84.181)" fill="#fff"/>
</svg>
