<svg xmlns="http://www.w3.org/2000/svg" width="21.693" height="14.91" viewBox="0 0 21.693 14.91">
  <path id="Path_157" data-name="Path 157" d="M2004.2,125.435a2.5,2.5,0,0,1-1.666-1.586c-.721-1.945-.934-10.08.454-11.682a2.706,2.706,0,0,1,1.813-.945c3.741-.395,15.3-.339,16.636.132a2.586,2.586,0,0,1,1.636,1.543c.789,2.01.816,9.324-.1,11.261a2.509,2.509,0,0,1-1.173,1.162c-1.395.718-15.76.709-17.6.115m5.943-3.813,6.738-3.427-6.738-3.448Z" transform="translate(-2001.973 -110.96)" fill="#fff" fill-rule="evenodd"/>
</svg>
