<svg id="Group_236" data-name="Group 236" xmlns="http://www.w3.org/2000/svg" xmlns:xlink="http://www.w3.org/1999/xlink" width="428.342" height="85.367" viewBox="0 0 428.342 85.367">
  <defs>
    <clipPath id="clip-path">
      <rect id="Rectangle_1" data-name="Rectangle 1" width="428.342" height="85.367" fill="#fff"/>
    </clipPath>
  </defs>
  <g id="Group_1" data-name="Group 1" clip-path="url(#clip-path)">
    <path id="Path_1" data-name="Path 1" d="M501.9,97.5a6.2,6.2,0,0,0-1.929.217,4.856,4.856,0,0,0-1.543.989l-.067.05-.3-1.257h-2.012v8.92h2.784v-5.533l.52-.4A2.8,2.8,0,0,1,501.1,100h2.817V97.5Zm-16.432,3.1c0-.889.285-1.157,1.173-1.157h3.84c.889,0,1.174.268,1.174,1.157v.167h-6.187Zm.117-3.1c-2.063,0-2.917.837-2.917,2.917V103.5c0,2.079.855,2.917,2.917,2.917h6.255c1.727,0,2.515-.771,2.515-2.515v-.771h-2.7v.234c0,.688-.251.939-.939.939h-4.075c-.889,0-1.173-.269-1.173-1.157v-.738h8.887v-2c0-2.08-.855-2.917-2.917-2.917Zm-4.092,0h-4.627V95.486h-2.231l-.553,2.013H471.7v2.129h2.381V103.9c0,1.744.788,2.515,2.515,2.515h4.9v-2.18h-3.689c-.687,0-.938-.251-.938-.939V99.628h4.627Zm-16.6,0a6.684,6.684,0,0,0-1.895.2,5.3,5.3,0,0,0-1.492.922l-.252-1.123h-2.314v8.92h2.783v-5.8l.52-.4a2.8,2.8,0,0,1,1.744-.486h2.666c.889,0,1.157.269,1.157,1.157v5.533h2.8v-6c0-2.08-.855-2.917-2.917-2.917Zm-16.533,3.1c0-.889.285-1.157,1.173-1.157h3.841c.888,0,1.173.268,1.173,1.157v.167h-6.187Zm.117-3.1c-2.062,0-2.917.837-2.917,2.917V103.5c0,2.079.855,2.917,2.917,2.917h6.255c1.727,0,2.515-.771,2.515-2.515v-.771h-2.7v.234c0,.688-.251.939-.939.939h-4.075c-.888,0-1.173-.269-1.173-1.157v-.738h8.887v-2c0-2.08-.855-2.917-2.918-2.917Zm-7.7,8.92c2.213,0,3.253-1.023,3.253-3.253v-1.492h-2.85v.955c0,1.023-.353,1.375-1.375,1.375h-5c-1.007,0-1.375-.352-1.375-1.375V98.47c0-1.023.369-1.375,1.375-1.375h5c1.023,0,1.375.352,1.375,1.375v.839h2.85V97.934c0-2.23-1.039-3.253-3.253-3.253H433.74c-2.213,0-3.253,1.023-3.253,3.253v5.231c0,2.231,1.039,3.253,3.253,3.253Zm-22.6-2.649L414.86,97.5h-3.2l5.081,8.6a1.72,1.72,0,0,1-1.777.822h-2.4V109.1h2.214a5.642,5.642,0,0,0,2.733-.52,5.529,5.529,0,0,0,1.811-2.1l5.315-8.987H421.55ZM411.221,97.5h-4.628V95.486h-2.23L403.81,97.5H401.43v2.129h2.381V103.9c0,1.744.788,2.515,2.515,2.515h4.9v-2.18h-3.689c-.687,0-.939-.251-.939-.939V99.628h4.628Zm-11,0h-2.851v8.92h2.851Zm0-2.817h-2.851V96.66h2.851ZM394.135,97.5a6.193,6.193,0,0,0-1.928.217,4.857,4.857,0,0,0-1.543.989l-.067.05-.3-1.257h-2.012v8.92h2.784v-5.533l.519-.4A2.8,2.8,0,0,1,393.33,100h2.817V97.5Zm-10.48,0v5.8l-.52.4a2.8,2.8,0,0,1-1.744.487h-2.666c-.888,0-1.157-.268-1.157-1.157V97.5h-2.8v6c0,2.079.855,2.917,2.918,2.917h2.8a6.01,6.01,0,0,0,1.9-.218,4.828,4.828,0,0,0,1.492-.905l.251,1.123h2.314V97.5Zm-21.915,6c0,2.079.855,2.917,2.917,2.917h5.567c2.063,0,2.917-.838,2.917-2.917v-.855H370.46v.436c0,.889-.285,1.157-1.174,1.157H365.7c-.889,0-1.174-.268-1.174-1.157v-2.247c0-.889.285-1.157,1.174-1.157h3.588c.889,0,1.174.269,1.174,1.157v.335h2.682v-.754c0-2.08-.855-2.917-2.917-2.917h-5.567c-2.062,0-2.917.837-2.917,2.917Zm-10.429-2.9c0-.889.285-1.157,1.173-1.157h3.839c.889,0,1.174.268,1.174,1.157v.167h-6.187Zm.117-3.1c-2.063,0-2.918.837-2.918,2.917V103.5c0,2.079.856,2.917,2.918,2.917h6.254c1.727,0,2.515-.771,2.515-2.515v-.771h-2.7v.234c0,.688-.253.939-.939.939h-4.075c-.889,0-1.173-.269-1.173-1.157v-.738H360.2v-2c0-2.08-.855-2.917-2.918-2.917Zm-18.143,6.4c0,1.744.788,2.515,2.515,2.515h8.635c1.727,0,2.515-.771,2.515-2.515v-1.911c0-1.727-.755-2.4-2.515-2.515l-7.076-.469c-.721-.05-.939-.252-.939-.939V97.85c0-.687.251-.939.939-.939h5.55c.688,0,.939.251.939.939V98.1h2.867V97.2c0-1.744-.788-2.515-2.515-2.515h-8.233c-1.728,0-2.516.771-2.516,2.515v1.609c0,1.693.755,2.381,2.516,2.515l7.075.469c.721.067.939.252.939.939v.519c0,.688-.251.939-.939.939h-5.953c-.687,0-.939-.251-.939-.939V102.8h-2.867Zm-8.065-6.4a6.193,6.193,0,0,0-1.928.217,4.863,4.863,0,0,0-1.543.989l-.067.05-.3-1.257h-2.012v8.92h2.783v-5.533l.52-.4a2.8,2.8,0,0,1,1.743-.486h2.817V97.5Zm-16.432,3.1c0-.889.285-1.157,1.173-1.157h3.84c.889,0,1.174.268,1.174,1.157v.167h-6.187Zm.117-3.1c-2.062,0-2.917.837-2.917,2.917V103.5c0,2.079.855,2.917,2.917,2.917h6.254c1.727,0,2.515-.771,2.515-2.515v-.771h-2.7v.234c0,.688-.251.939-.939.939h-4.075c-.889,0-1.173-.269-1.173-1.157v-.738h8.887v-2c0-2.08-.855-2.917-2.917-2.917Zm-7.261,5.583c0,.889-.268,1.157-1.157,1.157h-2.834a2.8,2.8,0,0,1-1.744-.469l-.519-.4V100.55l.519-.4a2.707,2.707,0,0,1,1.744-.469h2.834c.889,0,1.157.269,1.157,1.157ZM298.56,97.5a7.213,7.213,0,0,0-1.811.167,3.861,3.861,0,0,0-1.358.789V94.681h-2.784v11.737h2.314l.251-1.123a4.836,4.836,0,0,0,1.493.905,6.008,6.008,0,0,0,1.895.218h2.968c2.063,0,2.918-.838,2.918-2.917v-3.085c0-2.08-.855-2.917-2.918-2.917ZM285.2,103.769l-3.32-6.271h-3.2l5.081,8.6a1.72,1.72,0,0,1-1.778.822h-2.4V109.1h2.213a5.638,5.638,0,0,0,2.733-.52,5.524,5.524,0,0,0,1.811-2.1l5.315-8.987h-3.085Zm-10.563,2.649c2.213,0,3.253-1.023,3.253-3.253v-1.492h-2.851v.955c0,1.023-.352,1.375-1.375,1.375h-5c-1.007,0-1.375-.352-1.375-1.375V98.47c0-1.023.369-1.375,1.375-1.375h5c1.023,0,1.375.352,1.375,1.375v.839h2.851V97.934c0-2.23-1.039-3.253-3.253-3.253H267.59c-2.213,0-3.253,1.023-3.253,3.253v5.231c0,2.231,1.039,3.253,3.253,3.253ZM257.546,94.681h-2.833v11.737h2.833Zm-12.76,9.943c-.62,0-.8-.185-.8-.8v-.285c0-.6.185-.8.8-.8h5.282v1.005l-.587.453a2.408,2.408,0,0,1-1.476.436ZM244.1,97.5c-1.727,0-2.515.771-2.515,2.515v.6h2.7v-.251c0-.687.251-.939.939-.939h3.673c.888,0,1.173.269,1.173,1.158v.637h-6.774a1.868,1.868,0,0,0-2.113,2.113v.973a1.868,1.868,0,0,0,2.113,2.113h3.823a6.544,6.544,0,0,0,1.794-.184,4.135,4.135,0,0,0,1.375-.889l.251,1.073h2.331v-6c0-2.08-.855-2.917-2.917-2.917Zm-10.262,0a6.684,6.684,0,0,0-1.895.2,5.3,5.3,0,0,0-1.492.922L230.2,97.5h-2.314v8.92h2.784v-5.8l.519-.4a2.805,2.805,0,0,1,1.744-.486H235.6c.889,0,1.157.269,1.157,1.157v5.533h2.8v-6c0-2.08-.855-2.917-2.917-2.917Zm-15.526,6.74c-.889,0-1.174-.268-1.174-1.157v-2.247c0-.889.285-1.157,1.174-1.157h3.923c.889,0,1.174.269,1.174,1.157v2.247c0,.889-.285,1.157-1.174,1.157Zm4.963,2.18c2.063,0,2.918-.838,2.918-2.917v-3.085c0-2.08-.855-2.917-2.918-2.917h-6c-2.063,0-2.917.837-2.917,2.917V103.5c0,2.079.855,2.917,2.917,2.917ZM212.609,97.5h-2.851v8.92h2.851Zm0-2.817h-2.851V96.66h2.851ZM208.367,97.5h-4.628V95.486h-2.23l-.553,2.013h-2.381v2.129h2.381V103.9c0,1.744.789,2.515,2.515,2.515h4.9v-2.18h-3.689c-.687,0-.939-.251-.939-.939V99.628h4.628ZM189.4,104.624c-.621,0-.805-.185-.805-.8v-.285c0-.6.185-.8.805-.8h5.282v1.005l-.587.453a2.406,2.406,0,0,1-1.475.436Zm-.688-7.126c-1.727,0-2.515.771-2.515,2.515v.6h2.7v-.251c0-.687.251-.939.939-.939h3.672c.889,0,1.174.269,1.174,1.158v.637H187.91a1.867,1.867,0,0,0-2.113,2.113v.973a1.867,1.867,0,0,0,2.113,2.113h3.823a6.549,6.549,0,0,0,1.794-.184,4.134,4.134,0,0,0,1.375-.889l.252,1.073h2.331v-6c0-2.08-.855-2.917-2.918-2.917Zm-7.478,5.113-8.451-7.931h-2.515v11.737h2.85V98.37l8.585,8.049h2.381V94.681h-2.851Z" transform="translate(-75.582 -42.028)" fill="#fff" fill-rule="evenodd"/>
    <path id="Path_2" data-name="Path 2" d="M500.979,36.207h2.945V54.865h-2.945Zm-27.2,18.658a2.855,2.855,0,0,1-1.382-.339,3.674,3.674,0,0,1-1.016-.782v.7a7.4,7.4,0,0,1-.313,2.189,5.1,5.1,0,0,1-.938,1.772,4.406,4.406,0,0,1-1.538,1.185,4.893,4.893,0,0,1-2.111.43q-.469,0-.9-.039c-.286-.026-.534-.057-.742-.091q-.209-.027-.378-.052a1.918,1.918,0,0,1-.325-.078l.312-2.971.73.157q.313.052.664.091a5.814,5.814,0,0,0,.638.039,1.583,1.583,0,0,0,1.538-.73,4.636,4.636,0,0,0,.391-2.137v-9.72h2.971v4.951a2.9,2.9,0,0,0,.482,1.72,2.121,2.121,0,0,0,1.837.677c.589,0,1.176-.026,1.771-.026a1.892,1.892,0,0,0,.574-.091,1.1,1.1,0,0,0,.508-.36,2.064,2.064,0,0,0,.352-.751,4.813,4.813,0,0,0,.13-1.229,6.346,6.346,0,0,1,.4-2.293,5.514,5.514,0,0,1,1.121-1.811,5.209,5.209,0,0,1,3.844-1.646,4.753,4.753,0,0,1,3.87,1.607,6.821,6.821,0,0,1,1.342,4.5,3.463,3.463,0,0,0,.065.6,1.663,1.663,0,0,0,.3.686,1.85,1.85,0,0,0,.69.556,2.74,2.74,0,0,0,1.237.234c1.286,0,2.569.026,3.857.026V36.207h2.945V54.865h-6.88a3.341,3.341,0,0,1-1.915-.552,3.392,3.392,0,0,1-1.212-1.394,4.693,4.693,0,0,1-.99,1.156,3.655,3.655,0,0,1-1.068.617,4.406,4.406,0,0,1-1.147.252q-.6.052-1.225.052a5.148,5.148,0,0,1-2.462-.526,4.818,4.818,0,0,1-1.6-1.368,3.345,3.345,0,0,1-1.043,1.264,2.515,2.515,0,0,1-1.537.5ZM445.683,40.429a1.448,1.448,0,0,1,.451-1.068,1.517,1.517,0,0,1,1.1-.443,1.547,1.547,0,0,1,1.125.443,1.488,1.488,0,0,1,0,2.137,1.549,1.549,0,0,1-1.125.443,1.52,1.52,0,0,1-1.1-.443,1.448,1.448,0,0,1-.451-1.068m5.394,14.437a2.854,2.854,0,0,1-1.381-.339,3.676,3.676,0,0,1-1.017-.782v.7a7.4,7.4,0,0,1-.313,2.189,5.112,5.112,0,0,1-.938,1.772,4.405,4.405,0,0,1-1.538,1.185,4.9,4.9,0,0,1-2.111.43q-.47,0-.9-.039t-.743-.091q-.209-.027-.378-.052a1.955,1.955,0,0,1-.325-.078l.313-2.971.73.157c.209.034.43.065.664.091a5.813,5.813,0,0,0,.639.039,1.582,1.582,0,0,0,1.538-.73,4.642,4.642,0,0,0,.391-2.137v-9.72h2.97v4.951a2.9,2.9,0,0,0,.483,1.72,2.12,2.12,0,0,0,1.837.677h8.781V49.367a3.568,3.568,0,0,0-.247-1.472,1.879,1.879,0,0,0-.664-.807,2.215,2.215,0,0,0-.978-.339,10.283,10.283,0,0,0-1.186-.065h-3.153V44.051l5.055-8.026,2.449,1.642L457.07,43.79h.261a8.786,8.786,0,0,1,2.032.234,4.3,4.3,0,0,1,1.733.834,4.24,4.24,0,0,1,1.2,1.642,6.591,6.591,0,0,1,.456,2.632v5.733ZM430.413,36.207h2.945V54.865h-2.945ZM417.722,54.865a6.75,6.75,0,0,1-.6,2.593,4.793,4.793,0,0,1-1.407,1.758,5.962,5.962,0,0,1-2.085,1,10.007,10.007,0,0,1-2.632.326q-.6,0-1.251-.039a13.7,13.7,0,0,1-1.434-.17l.208-2.918q.756.1,1.433.157t1.172.052a8.74,8.74,0,0,0,1.381-.1,3.263,3.263,0,0,0,1.16-.4,2.191,2.191,0,0,0,.807-.834,3.09,3.09,0,0,0,.325-1.42h-1.746a7.165,7.165,0,0,1-2.723-.456,5.017,5.017,0,0,1-1.8-1.2,4.564,4.564,0,0,1-1-1.681,5.979,5.979,0,0,1-.313-1.9,6.759,6.759,0,0,1,.4-2.332,6.078,6.078,0,0,1,1.133-1.941,5.361,5.361,0,0,1,1.733-1.316,5.075,5.075,0,0,1,2.228-.482,5.5,5.5,0,0,1,2.1.378A4.448,4.448,0,0,1,416.393,45a4.613,4.613,0,0,1,.99,1.642,6.214,6.214,0,0,1,.339,2.1v3.1h5.472V36.207h2.945V54.865Zm-2.945-3.023V49.523a3.8,3.8,0,0,0-.586-2.28,1.911,1.911,0,0,0-1.629-.8,2.145,2.145,0,0,0-.9.2,2.474,2.474,0,0,0-.769.547,2.737,2.737,0,0,0-.547.847,2.861,2.861,0,0,0-.208,1.121,2.933,2.933,0,0,0,.235,1.237,2.341,2.341,0,0,0,.626.834,2.39,2.39,0,0,0,.9.469,3.866,3.866,0,0,0,1.056.143Zm-13.889-1.485a6.158,6.158,0,0,0-.235-1.837,2.937,2.937,0,0,0-.664-1.186,2.473,2.473,0,0,0-1.043-.638,4.384,4.384,0,0,0-1.342-.2,4.429,4.429,0,0,0-1.746.378,5.785,5.785,0,0,0-1.642,1.068,6.334,6.334,0,0,0-1.98,3.9h8.651Zm-21.395-9.928a1.447,1.447,0,0,1,.452-1.068,1.516,1.516,0,0,1,1.1-.443,1.549,1.549,0,0,1,1.125.443,1.491,1.491,0,0,1,0,2.137,1.551,1.551,0,0,1-1.125.443,1.518,1.518,0,0,1-1.1-.443,1.447,1.447,0,0,1-.452-1.068M360.315,63.087a1.425,1.425,0,0,1,.443-1.064,1.661,1.661,0,0,1,2.241,0,1.427,1.427,0,0,1,.443,1.064,1.458,1.458,0,0,1-.443,1.09,1.663,1.663,0,0,1-2.241,0,1.456,1.456,0,0,1-.443-1.09m-4.039,0a1.425,1.425,0,0,1,.443-1.064,1.661,1.661,0,0,1,2.241,0,1.424,1.424,0,0,1,.443,1.064,1.456,1.456,0,0,1-.443,1.09,1.663,1.663,0,0,1-2.241,0,1.456,1.456,0,0,1-.443-1.09m15.348-8.221V50.123a4.843,4.843,0,0,0-.17-1.421,1.675,1.675,0,0,0-.521-.821,1.881,1.881,0,0,0-.886-.378,7.447,7.447,0,0,0-1.238-.091h-.234v5.5a8.176,8.176,0,0,1-.521,2.932,6.258,6.258,0,0,1-1.615,2.384,7.923,7.923,0,0,1-2.789,1.616,12.039,12.039,0,0,1-4.013.6,9.451,9.451,0,0,1-3.622-.626,7.4,7.4,0,0,1-2.476-1.6,6.179,6.179,0,0,1-1.42-2.2,7.036,7.036,0,0,1,.026-5.055,11.7,11.7,0,0,1,1.237-2.293l2.449,1.434a6.909,6.909,0,0,0-.873,1.733,5.079,5.079,0,0,0-.274,1.55,3.644,3.644,0,0,0,.339,1.577,3.425,3.425,0,0,0,1,1.238,5.036,5.036,0,0,0,1.642.821,7.606,7.606,0,0,0,2.228.3,9.945,9.945,0,0,0,2.293-.247,5.994,5.994,0,0,0,1.811-.73,3.481,3.481,0,0,0,1.186-1.2,3.184,3.184,0,0,0,.416-1.629V44.494h3.622a5.476,5.476,0,0,1,4.065,1.329,5.519,5.519,0,0,1,1.3,4.013v2.006h4.013a.789.789,0,0,0,.768-.365,2.1,2.1,0,0,0,.2-.99V44.494h2.971v4.951a2.841,2.841,0,0,0,.495,1.72,2.093,2.093,0,0,0,1.8.677h4.352V36.207h3V46.657a7.431,7.431,0,0,1,2.632-2.267,6.825,6.825,0,0,1,3.127-.782,6.239,6.239,0,0,1,2.566.495,5.274,5.274,0,0,1,1.863,1.368,5.767,5.767,0,0,1,1.133,2.072,8.624,8.624,0,0,1,.378,2.605v4.717H384.758a2.874,2.874,0,0,1-1.837-.547,4.106,4.106,0,0,1-1.055-1.2,3.622,3.622,0,0,1-1.238,1.251,3.5,3.5,0,0,1-1.889.5ZM327.455,34.383a3.5,3.5,0,0,0-.938-.131.97.97,0,0,0-.652.222.822.822,0,0,0-.261.665,1,1,0,0,0,.352.729,1.549,1.549,0,0,0,1.107.339h.808v1.381h-4.4V36.207h1.173a5.437,5.437,0,0,1-.391-.626,1.621,1.621,0,0,1-.183-.781,1.825,1.825,0,0,1,.574-1.33,2.374,2.374,0,0,1,1.746-.573,4.574,4.574,0,0,1,.665.052,5.528,5.528,0,0,1,.638.131ZM335.9,54.865a2.813,2.813,0,0,1-1.759-.547,4.735,4.735,0,0,1-1.133-1.2,2.861,2.861,0,0,1-1.3,1.316,4.081,4.081,0,0,1-1.85.43H319.038V51.842h5.369V41.08h2.971V51.842h2.345a.787.787,0,0,0,.782-.365,2.243,2.243,0,0,0,.182-.99V36.207h3V49.445a2.891,2.891,0,0,0,.483,1.72,2.053,2.053,0,0,0,1.785.677h3.83V36.207h2.945V54.865ZM311.533,52a2.149,2.149,0,0,0,1.811-.756,2.885,2.885,0,0,0,.587-1.824,3.416,3.416,0,0,0-.209-1.225,3.268,3.268,0,0,0-.534-.938,2.268,2.268,0,0,0-.756-.6,2.034,2.034,0,0,0-.9-.209,2.175,2.175,0,0,0-.938.209,2.229,2.229,0,0,0-.769.6,3.047,3.047,0,0,0-.521.938,3.627,3.627,0,0,0-.2,1.225,2.991,2.991,0,0,0,.56,1.811,2.15,2.15,0,0,0,1.863.769m-19.282-8.964a1.445,1.445,0,0,1,.451-1.068,1.516,1.516,0,0,1,1.1-.443,1.549,1.549,0,0,1,1.125.443,1.489,1.489,0,0,1,0,2.137,1.55,1.55,0,0,1-1.125.443,1.518,1.518,0,0,1-1.1-.443,1.446,1.446,0,0,1-.451-1.068m10.475,11.831a2.813,2.813,0,0,1-1.146-.209,2.877,2.877,0,0,1-.782-.495,7.17,7.17,0,0,1-.912,2.814,6.525,6.525,0,0,1-1.733,1.929,7.018,7.018,0,0,1-2.293,1.107,9.522,9.522,0,0,1-2.566.352,8.915,8.915,0,0,1-3.544-.612,6.2,6.2,0,0,1-2.254-1.59,5.753,5.753,0,0,1-1.2-2.189,8.517,8.517,0,0,1-.352-2.384,8.044,8.044,0,0,1,.447-2.58,7.859,7.859,0,0,1,1.233-2.345L290.14,50.1a6.382,6.382,0,0,0-.86,1.772,6.072,6.072,0,0,0-.261,1.72,4.294,4.294,0,0,0,.209,1.29,3.2,3.2,0,0,0,.712,1.212,3.829,3.829,0,0,0,1.351.9,5.634,5.634,0,0,0,2.146.352A5.058,5.058,0,0,0,295.359,57a4.285,4.285,0,0,0,1.39-.886,3.465,3.465,0,0,0,.83-1.277,4.272,4.272,0,0,0,.274-1.511,8.173,8.173,0,0,0-.43-2.449,10.71,10.71,0,0,0-1.133-2.476l2.788-1.59a18.66,18.66,0,0,1,.872,1.955q.352.938.534,1.615a1.981,1.981,0,0,0,.691,1.147,2.861,2.861,0,0,0,1.55.313h1.851q1.615,0,1.615-2.441a6.482,6.482,0,0,1,.4-2.315,5.387,5.387,0,0,1,1.134-1.829,5.171,5.171,0,0,1,1.707-1.194,5.277,5.277,0,0,1,2.15-.43,5.48,5.48,0,0,1,2.281.443,4.376,4.376,0,0,1,1.615,1.22,5.145,5.145,0,0,1,.952,1.872,8.667,8.667,0,0,1,.313,2.393,7.215,7.215,0,0,1-.274,1.976,4.567,4.567,0,0,1-.9,1.7,4.463,4.463,0,0,1-1.6,1.181,5.757,5.757,0,0,1-2.385.443,10.282,10.282,0,0,1-1.146-.065,5.223,5.223,0,0,1-1.134-.261,4.435,4.435,0,0,1-1.068-.547,4.1,4.1,0,0,1-.925-.9,2.834,2.834,0,0,1-1.082,1.342,2.738,2.738,0,0,1-1.472.43ZM274.556,36.207H277.5V54.865h-2.945ZM234.843,58.135a1.427,1.427,0,0,1,.443-1.064,1.663,1.663,0,0,1,2.241,0,1.427,1.427,0,0,1,.443,1.064,1.457,1.457,0,0,1-.443,1.091,1.663,1.663,0,0,1-2.241,0,1.457,1.457,0,0,1-.443-1.091m-4.04,0a1.428,1.428,0,0,1,.443-1.064,1.663,1.663,0,0,1,2.241,0,1.427,1.427,0,0,1,.443,1.064,1.457,1.457,0,0,1-.443,1.091,1.663,1.663,0,0,1-2.241,0,1.457,1.457,0,0,1-.443-1.091m-7.713,0a1.419,1.419,0,0,1,.452-1.064,1.562,1.562,0,0,1,1.125-.434,1.529,1.529,0,0,1,1.1.434,1.419,1.419,0,0,1,.452,1.064,1.448,1.448,0,0,1-.452,1.091,1.529,1.529,0,0,1-1.1.434,1.562,1.562,0,0,1-1.125-.434,1.448,1.448,0,0,1-.452-1.091m40.26-3.27a3.019,3.019,0,0,1-1.863-.521,3.707,3.707,0,0,1-1.055-1.2,2.957,2.957,0,0,1-1.329,1.277,4.366,4.366,0,0,1-1.98.443h-.7a2.907,2.907,0,0,1-1.837-.521,3.621,3.621,0,0,1-1-1.173,3.1,3.1,0,0,1-1.355,1.277,4.124,4.124,0,0,1-1.823.417h-.678a2.929,2.929,0,0,1-1.811-.521,3.516,3.516,0,0,1-1.029-1.173,3.055,3.055,0,0,1-1.395,1.277,4.677,4.677,0,0,1-1.993.417H238.1a2.876,2.876,0,0,1-1.837-.547,4.115,4.115,0,0,1-1.055-1.2,3.62,3.62,0,0,1-1.237,1.251,3.5,3.5,0,0,1-1.89.5h-3.466a2.873,2.873,0,0,1-1.837-.547,4.1,4.1,0,0,1-1.055-1.2,3.622,3.622,0,0,1-1.238,1.251,3.5,3.5,0,0,1-1.889.5h-3.309a2.855,2.855,0,0,1-1.381-.339,3.678,3.678,0,0,1-1.017-.782v.7a7.4,7.4,0,0,1-.312,2.189,5.1,5.1,0,0,1-.938,1.772,4.4,4.4,0,0,1-1.537,1.185,4.9,4.9,0,0,1-2.111.43q-.469,0-.9-.039t-.743-.091q-.209-.027-.378-.052a1.922,1.922,0,0,1-.326-.078l.313-2.971.73.157q.313.052.665.091a5.813,5.813,0,0,0,.638.039,1.583,1.583,0,0,0,1.538-.73,4.635,4.635,0,0,0,.391-2.137v-9.72h2.97v4.951a2.9,2.9,0,0,0,.483,1.72,2.12,2.12,0,0,0,1.837.677h3.258a.791.791,0,0,0,.769-.365,2.111,2.111,0,0,0,.2-.99V44.494H226.4v4.951a2.838,2.838,0,0,0,.5,1.72,2.091,2.091,0,0,0,1.8.677h3.258a.79.79,0,0,0,.769-.365,2.1,2.1,0,0,0,.2-.99V44.494h2.971v4.951a2.838,2.838,0,0,0,.495,1.72,2.093,2.093,0,0,0,1.8.677h5.342a.905.905,0,0,0,.807-.313,1.765,1.765,0,0,0,.209-.964V46.917h2.918v2.527a2.87,2.87,0,0,0,.495,1.694,2.087,2.087,0,0,0,1.825.7h.469a.786.786,0,0,0,.781-.365,2.243,2.243,0,0,0,.182-.99V45.9h3v3.544a2.841,2.841,0,0,0,.495,1.72,2.092,2.092,0,0,0,1.8.677h.625a.844.844,0,0,0,.821-.365,2.111,2.111,0,0,0,.2-.99V44.494h2.945v4.951a2.9,2.9,0,0,0,.482,1.72,2.054,2.054,0,0,0,1.785.677h3.987V36.207h2.945V54.865ZM205.137,36.207h2.945V54.865h-2.945Zm-6.906,4.221a1.447,1.447,0,0,1,.452-1.068,1.516,1.516,0,0,1,1.1-.443,1.549,1.549,0,0,1,1.125.443,1.489,1.489,0,0,1,0,2.137,1.551,1.551,0,0,1-1.125.443,1.519,1.519,0,0,1-1.1-.443,1.447,1.447,0,0,1-.452-1.068m-19.31,22.658a1.425,1.425,0,0,1,.443-1.064,1.661,1.661,0,0,1,2.241,0,1.425,1.425,0,0,1,.443,1.064,1.456,1.456,0,0,1-.443,1.09,1.663,1.663,0,0,1-2.241,0,1.456,1.456,0,0,1-.443-1.09m-4.039,0a1.423,1.423,0,0,1,.443-1.064,1.66,1.66,0,0,1,2.241,0,1.423,1.423,0,0,1,.443,1.064,1.454,1.454,0,0,1-.443,1.09,1.662,1.662,0,0,1-2.241,0,1.454,1.454,0,0,1-.443-1.09M482.373,51.972a2.209,2.209,0,0,0,1.837-.738,2.856,2.856,0,0,0,.586-1.828,3.394,3.394,0,0,0-.208-1.221,3.249,3.249,0,0,0-.534-.934,2.216,2.216,0,0,0-.769-.6,2.116,2.116,0,0,0-.912-.209,2.172,2.172,0,0,0-.938.209,2.215,2.215,0,0,0-.769.6,3.029,3.029,0,0,0-.521.934,3.588,3.588,0,0,0-.2,1.221,2.856,2.856,0,0,0,.586,1.828,2.208,2.208,0,0,0,1.837.738M190.231,54.865V50.123a4.822,4.822,0,0,0-.17-1.421,1.677,1.677,0,0,0-.521-.821,1.879,1.879,0,0,0-.886-.378,7.448,7.448,0,0,0-1.238-.091h-.234v5.5a8.165,8.165,0,0,1-.522,2.932,6.246,6.246,0,0,1-1.616,2.384,7.917,7.917,0,0,1-2.788,1.616,12.047,12.047,0,0,1-4.013.6,9.452,9.452,0,0,1-3.622-.626,7.4,7.4,0,0,1-2.476-1.6,6.186,6.186,0,0,1-1.42-2.2,7.043,7.043,0,0,1,.026-5.055,11.736,11.736,0,0,1,1.238-2.293l2.45,1.434a6.89,6.89,0,0,0-.873,1.733,5.078,5.078,0,0,0-.274,1.55,3.644,3.644,0,0,0,.339,1.577,3.425,3.425,0,0,0,1,1.238,5.03,5.03,0,0,0,1.642.821,7.6,7.6,0,0,0,2.228.3,9.947,9.947,0,0,0,2.293-.247,5.993,5.993,0,0,0,1.811-.73,3.477,3.477,0,0,0,1.186-1.2,3.179,3.179,0,0,0,.417-1.629V44.494h3.622a5.477,5.477,0,0,1,4.065,1.329,5.521,5.521,0,0,1,1.3,4.013v2.006h5.056V44.494h2.971V54.865Z" transform="translate(-75.582 -14.603)" fill="#fff" fill-rule="evenodd"/>
    <path id="Path_3" data-name="Path 3" d="M77.75,8.195a.931.931,0,1,0-.708-.091.937.937,0,0,0,.708.091M74.823,22.646a.933.933,0,0,0,.567-.435h0a.936.936,0,0,0-.344-1.275h0a.933.933,0,0,0-1.367,1.053.925.925,0,0,0,.43.567h0a.934.934,0,0,0,.708.092m-.907,21.4a.938.938,0,0,0,.229-1.712h-.005a.936.936,0,0,0-1.276.344h0a.936.936,0,0,0,.344,1.275h0a.932.932,0,0,0,.708.092M30.109,4.1A83.166,83.166,0,0,1,56.994.007,46.083,46.083,0,0,1,72.342,19.276a3.328,3.328,0,0,0,.573,5.351l0,0a3.328,3.328,0,0,0,4.552-1.217h0a3.33,3.33,0,0,0-1.217-4.551h0a3.321,3.321,0,0,0-1.668-.448A48.538,48.538,0,0,0,61.08.161a83.106,83.106,0,0,1,25.4,5.661,42.057,42.057,0,0,1,.39,15.11L81.81,15.981q-.365-1.768-.9-3.5-.449-1.443-1.02-2.853a3.329,3.329,0,1,0-2.183.993q.505,1.26.915,2.574a34.6,34.6,0,0,1,.911,3.611l.338.625,6.428,6.29q-.282,1.129-.641,2.233A29.446,29.446,0,0,1,75.541,40.388c-.066-.044-.133-.086-.2-.126v0a3.329,3.329,0,0,0-4.552,1.217h0a3.33,3.33,0,0,0,1.217,4.551h0a3.333,3.333,0,0,0,4.9-3.675,31.8,31.8,0,0,0,11.023-15.66A41.745,41.745,0,0,0,89.124,6.92,83.216,83.216,0,0,1,98.438,11.7c.467,35.637-27.393,40.568-38.062,36.84C76.869,45.1,70.427-3.1,30.109,4.1" transform="translate(-13.365 0)" fill="#fff" fill-rule="evenodd"/>
    <path id="Path_4" data-name="Path 4" d="M72.847,93.142a.931.931,0,1,0,.433-.568.935.935,0,0,0-.433.568M61.8,83.381a.926.926,0,0,0,.093.709h0a.935.935,0,0,0,1.275.34h0a.934.934,0,0,0-.228-1.711.927.927,0,0,0-.707.09l0,0a.928.928,0,0,0-.433.567M43.716,71.9a.937.937,0,0,0,1.369,1.054l0,0a.934.934,0,0,0-.936-1.617h0a.939.939,0,0,0-.434.567m56.5-17.964a83.174,83.174,0,0,1-9.9,25.328,46.077,46.077,0,0,1-24.362,3.658,3.328,3.328,0,0,0-4.92-2.18v0a3.329,3.329,0,0,0-1.222,4.551h0a3.328,3.328,0,0,0,4.549,1.221h0a3.322,3.322,0,0,0,1.223-1.221,48.522,48.522,0,0,0,22.554-2.565,83.065,83.065,0,0,1-17.6,19.168,42.05,42.05,0,0,1-13.281-7.217l6.82-1.907c1.142.379,2.306.7,3.482.967q1.475.334,2.981.543a3.327,3.327,0,1,0,.231-2.387q-1.343-.194-2.685-.5A34.312,34.312,0,0,1,64.5,90.377l-.71-.02L55.13,92.779q-.838-.809-1.614-1.671a29.444,29.444,0,0,1-7.445-15.975c.071-.034.141-.071.21-.111v0A3.329,3.329,0,0,0,47.5,70.473h0a3.33,3.33,0,0,0-4.55-1.221h0a3.333,3.333,0,0,0,.73,6.084,31.8,31.8,0,0,0,8.051,17.377A41.742,41.742,0,0,0,68.263,103.63a83.2,83.2,0,0,1-8.795,5.677C28.373,91.893,38.033,65.3,46.6,57.925c-5.267,16,39.695,34.524,53.619-3.993" transform="translate(-16.928 -23.94)" fill="#fff" fill-rule="evenodd"/>
    <path id="Path_5" data-name="Path 5" d="M7.317,35.728a.932.932,0,1,0,.275.659.935.935,0,0,0-.275-.659M21.3,31.038a.93.93,0,0,0-.661-.274h0a.936.936,0,0,0-.932.935h0a.936.936,0,0,0,1.871,0l0,0a.927.927,0,0,0-.274-.658m.31-15.835c3.725.894,9.344,1.53,11.43,4.408-5.715-1.753-10.347,3.123-11.43-4.408m5.984,63.831A83.167,83.167,0,0,1,10.6,57.8a46.076,46.076,0,0,1,9.013-22.927A3.329,3.329,0,0,0,23.966,31.7h0a3.328,3.328,0,0,0-3.33-3.333h0a3.329,3.329,0,0,0-3.332,3.33h0a3.317,3.317,0,0,0,.447,1.669A48.525,48.525,0,0,0,8.7,54.181,83.118,83.118,0,0,1,.9,29.353,42.046,42.046,0,0,1,13.788,21.46L12.03,28.319q-1.349,1.2-2.579,2.533-1.025,1.11-1.961,2.31a3.331,3.331,0,1,0,1.951,1.4q.838-1.068,1.772-2.079a34.6,34.6,0,0,1,2.672-2.595l.371-.6,2.233-8.712q1.119-.319,2.254-.562a31.4,31.4,0,0,1,3.815-.569,4.871,4.871,0,0,1-1.314-2.274q-1.51.182-3,.5A41.734,41.734,0,0,0,.527,26.515,83.236,83.236,0,0,1,.007,16.06c13.5-8.034,26.116-8.887,39.451.881q6.074,2.537,8.7,6.756c.161.27.315.541.463.81a13.07,13.07,0,0,1,1.267,3.668h0l.006.029.031.172,0,.017.012.07v0l.041.259.006.036.007.052,0,.021L50,28.9l0,.007.01.081.009.067,0,.021.007.054,0,.035c.014.113.026.226.037.34l0,.016a17.83,17.83,0,0,1-.044,3.64c-.3-2.371-4.621-5.88-10.546-4.878C25.022,32.31,7.5,55.194,27.591,79.034" transform="translate(0 -4.361)" fill="#fff" fill-rule="evenodd"/>
  </g>
</svg>
