<svg xmlns="http://www.w3.org/2000/svg" width="36.128" height="36.127" viewBox="0 0 36.128 36.127">
  <path id="Path_83" data-name="Path 83" d="M23.682,0a12.439,12.439,0,0,0-9.909,19.967l-2.521,2.521a.6.6,0,0,0-.044.05,3.107,3.107,0,0,0-.634-.066,3.062,3.062,0,0,0-2.18.9L.9,30.866a3.082,3.082,0,1,0,4.359,4.358l7.491-7.491a3.061,3.061,0,0,0,.9-2.179,3.108,3.108,0,0,0-.066-.634.58.58,0,0,0,.05-.044l2.521-2.521A12.443,12.443,0,1,0,23.682,0ZM4.434,34.4a1.912,1.912,0,1,1-2.7-2.7L8.5,24.929l2.7,2.7Zm7.588-7.6L9.328,24.106A1.91,1.91,0,0,1,12.022,26.8Zm1.065-3.028a3.074,3.074,0,0,0-.733-.733l2.172-2.172q.351.381.733.733Zm10.594-.052A11.275,11.275,0,1,1,34.957,12.446,11.288,11.288,0,0,1,23.682,23.721Z" fill="#04aabd"/>
</svg>
