<svg width="47" height="57" viewBox="0 0 47 57" fill="none" xmlns="http://www.w3.org/2000/svg">
<path d="M14.07 40.6318H12.203C11.9554 40.6318 11.718 40.7302 11.5429 40.9052C11.3679 41.0803 11.2695 41.3178 11.2695 41.5653C11.2695 41.8129 11.3679 42.0504 11.5429 42.2254C11.718 42.4005 11.9554 42.4988 12.203 42.4988H14.07C14.3176 42.4988 14.555 42.4005 14.7301 42.2254C14.9052 42.0504 15.0035 41.8129 15.0035 41.5653C15.0035 41.3178 14.9052 41.0803 14.7301 40.9052C14.555 40.7302 14.3176 40.6318 14.07 40.6318Z" fill="#004AAD"/>
<path d="M40.203 40.6318H17.803C17.5554 40.6318 17.318 40.7302 17.1429 40.9052C16.9679 41.0803 16.8695 41.3178 16.8695 41.5653C16.8695 41.8129 16.9679 42.0504 17.1429 42.2254C17.318 42.4005 17.5554 42.4988 17.803 42.4988H40.203C40.4506 42.4988 40.688 42.4005 40.8631 42.2254C41.0382 42.0504 41.1365 41.8129 41.1365 41.5653C41.1365 41.3178 41.0382 41.0803 40.8631 40.9052C40.688 40.7302 40.4506 40.6318 40.203 40.6318Z" fill="#004AAD"/>
<path d="M14.07 35.0322H12.203C11.9554 35.0322 11.718 35.1306 11.5429 35.3056C11.3679 35.4807 11.2695 35.7181 11.2695 35.9657C11.2695 36.2133 11.3679 36.4508 11.5429 36.6258C11.718 36.8009 11.9554 36.8992 12.203 36.8992H14.07C14.3176 36.8992 14.555 36.8009 14.7301 36.6258C14.9052 36.4508 15.0035 36.2133 15.0035 35.9657C15.0035 35.7181 14.9052 35.4807 14.7301 35.3056C14.555 35.1306 14.3176 35.0322 14.07 35.0322Z" fill="#004AAD"/>
<path d="M40.203 35.0322H17.803C17.5554 35.0322 17.318 35.1306 17.1429 35.3056C16.9679 35.4807 16.8695 35.7181 16.8695 35.9657C16.8695 36.2133 16.9679 36.4508 17.1429 36.6258C17.318 36.8009 17.5554 36.8992 17.803 36.8992H40.203C40.4506 36.8992 40.688 36.8009 40.8631 36.6258C41.0382 36.4508 41.1365 36.2133 41.1365 35.9657C41.1365 35.7181 41.0382 35.4807 40.8631 35.3056C40.688 35.1306 40.4506 35.0322 40.203 35.0322Z" fill="#004AAD"/>
<path d="M14.07 29.4321H12.203C11.9554 29.4321 11.718 29.5305 11.5429 29.7056C11.3679 29.8806 11.2695 30.1181 11.2695 30.3656C11.2695 30.6132 11.3679 30.8506 11.5429 31.0257C11.718 31.2008 11.9554 31.2991 12.203 31.2991H14.07C14.3176 31.2991 14.555 31.2008 14.7301 31.0257C14.9052 30.8506 15.0035 30.6132 15.0035 30.3656C15.0035 30.1181 14.9052 29.8806 14.7301 29.7056C14.555 29.5305 14.3176 29.4321 14.07 29.4321Z" fill="#004AAD"/>
<path d="M40.203 29.4321H17.803C17.5554 29.4321 17.318 29.5305 17.1429 29.7056C16.9679 29.8806 16.8695 30.1181 16.8695 30.3656C16.8695 30.6132 16.9679 30.8506 17.1429 31.0257C17.318 31.2008 17.5554 31.2991 17.803 31.2991H40.203C40.4506 31.2991 40.688 31.2008 40.8631 31.0257C41.0382 30.8506 41.1365 30.6132 41.1365 30.3656C41.1365 30.1181 41.0382 29.8806 40.8631 29.7056C40.688 29.5305 40.4506 29.4321 40.203 29.4321Z" fill="#004AAD"/>
<path d="M14.07 23.832H12.203C11.9554 23.832 11.718 23.9304 11.5429 24.1055C11.3679 24.2805 11.2695 24.518 11.2695 24.7655C11.2695 25.0131 11.3679 25.2505 11.5429 25.4256C11.718 25.6007 11.9554 25.699 12.203 25.699H14.07C14.3176 25.699 14.555 25.6007 14.7301 25.4256C14.9052 25.2505 15.0035 25.0131 15.0035 24.7655C15.0035 24.518 14.9052 24.2805 14.7301 24.1055C14.555 23.9304 14.3176 23.832 14.07 23.832Z" fill="#004AAD"/>
<path d="M40.203 23.832H17.803C17.5554 23.832 17.318 23.9304 17.1429 24.1055C16.9679 24.2805 16.8695 24.518 16.8695 24.7655C16.8695 25.0131 16.9679 25.2505 17.1429 25.4256C17.318 25.6007 17.5554 25.699 17.803 25.699H40.203C40.4506 25.699 40.688 25.6007 40.8631 25.4256C41.0382 25.2505 41.1365 25.0131 41.1365 24.7655C41.1365 24.518 41.0382 24.2805 40.8631 24.1055C40.688 23.9304 40.4506 23.832 40.203 23.832Z" fill="#004AAD"/>
<path d="M14.07 18.2319H12.203C11.9554 18.2319 11.718 18.3303 11.5429 18.5054C11.3679 18.6804 11.2695 18.9179 11.2695 19.1654C11.2695 19.413 11.3679 19.6505 11.5429 19.8255C11.718 20.0006 11.9554 20.0989 12.203 20.0989H14.07C14.3176 20.0989 14.555 20.0006 14.7301 19.8255C14.9052 19.6505 15.0035 19.413 15.0035 19.1654C15.0035 18.9179 14.9052 18.6804 14.7301 18.5054C14.555 18.3303 14.3176 18.2319 14.07 18.2319Z" fill="#004AAD"/>
<path d="M40.203 18.2319H17.803C17.5554 18.2319 17.318 18.3303 17.1429 18.5054C16.9679 18.6804 16.8695 18.9179 16.8695 19.1654C16.8695 19.413 16.9679 19.6505 17.1429 19.8255C17.318 20.0006 17.5554 20.0989 17.803 20.0989H40.203C40.4506 20.0989 40.688 20.0006 40.8631 19.8255C41.0382 19.6505 41.1365 19.413 41.1365 19.1654C41.1365 18.9179 41.0382 18.6804 40.8631 18.5054C40.688 18.3303 40.4506 18.2319 40.203 18.2319Z" fill="#004AAD"/>
<path d="M46.725 14.44C46.7202 14.3582 46.7041 14.2774 46.677 14.2C46.667 14.17 46.659 14.141 46.646 14.112C46.6004 14.0106 46.5371 13.9182 46.459 13.839L33.393 0.772023C33.3139 0.693922 33.2214 0.630593 33.12 0.585023C33.091 0.572023 33.062 0.564023 33.033 0.554023C32.9549 0.526995 32.8735 0.510516 32.791 0.505023C32.77 0.509023 32.757 0.499023 32.737 0.499023H6.60301C6.35556 0.499023 6.11825 0.597321 5.94328 0.772293C5.7683 0.947264 5.67001 1.18458 5.67001 1.43202V4.23202H1.00301C0.880399 4.23202 0.758995 4.25619 0.645733 4.30314C0.532471 4.35009 0.429573 4.4189 0.342923 4.50565C0.256273 4.59239 0.187569 4.69536 0.14074 4.80867C0.0939112 4.92199 0.0698764 5.04342 0.0700079 5.16602V55.566C0.0700079 55.8135 0.168306 56.0508 0.343278 56.2258C0.518249 56.4007 0.75556 56.499 1.00301 56.499H40.203C40.3255 56.499 40.4469 56.4749 40.5601 56.428C40.6732 56.3811 40.7761 56.3124 40.8627 56.2258C40.9494 56.1391 41.0181 56.0363 41.065 55.9231C41.1119 55.8099 41.136 55.6885 41.136 55.566V50.899H45.803C46.0505 50.899 46.2878 50.8007 46.4627 50.6258C46.6377 50.4508 46.736 50.2135 46.736 49.966V14.499C46.737 14.478 46.726 14.461 46.725 14.44ZM33.67 3.68502L43.55 13.565H33.67V3.68502ZM39.27 54.632H1.93701V6.09902H5.67001V49.966C5.67001 50.2135 5.7683 50.4508 5.94328 50.6258C6.11825 50.8007 6.35556 50.899 6.60301 50.899H39.27V54.632ZM44.87 49.032H7.53701V2.36602H31.803V14.499C31.803 14.6215 31.8271 14.7429 31.874 14.8561C31.9209 14.9693 31.9896 15.0721 32.0763 15.1588C32.1629 15.2454 32.2658 15.3141 32.379 15.361C32.4922 15.4079 32.6135 15.432 32.736 15.432H44.87V49.032Z" fill="#004AAD"/>
<path d="M17.803 8.89893H12.203C11.9556 8.89893 11.7182 8.99722 11.5433 9.1722C11.3683 9.34717 11.27 9.58448 11.27 9.83192V15.4319C11.27 15.6794 11.3683 15.9167 11.5433 16.0917C11.7182 16.2666 11.9556 16.3649 12.203 16.3649H17.803C18.0505 16.3649 18.2878 16.2666 18.4627 16.0917C18.6377 15.9167 18.736 15.6794 18.736 15.4319V9.83192C18.736 9.58448 18.6377 9.34717 18.4627 9.1722C18.2878 8.99722 18.0505 8.89893 17.803 8.89893ZM16.87 14.4989H13.137V10.7659H16.87V14.4989Z" fill="#004AAD"/>
</svg>
